<?xml version="1.0" encoding="UTF-8" standalone="no"?>
<!-- Created with Inkscape (http://www.inkscape.org/) -->

<svg
   width="145.62402mm"
   height="81.881409mm"
   viewBox="0 0 145.62402 81.881409"
   version="1.1"
   id="svg5"
   xml:space="preserve"
   inkscape:version="1.2.2 (732a01da63, 2022-12-09)"
   sodipodi:docname="Sam Hill Signature Trails Logo _ Round 2.svg"
   xmlns:inkscape="http://www.inkscape.org/namespaces/inkscape"
   xmlns:sodipodi="http://sodipodi.sourceforge.net/DTD/sodipodi-0.dtd"
   xmlns="http://www.w3.org/2000/svg"
   xmlns:svg="http://www.w3.org/2000/svg"><sodipodi:namedview
     id="namedview7"
     pagecolor="#505050"
     bordercolor="#eeeeee"
     borderopacity="1"
     inkscape:showpageshadow="0"
     inkscape:pageopacity="0"
     inkscape:pagecheckerboard="0"
     inkscape:deskcolor="#505050"
     inkscape:document-units="mm"
     showgrid="false"
     inkscape:zoom="0.34294515"
     inkscape:cx="31451.094"
     inkscape:cy="-2831.3566"
     inkscape:window-width="1920"
     inkscape:window-height="1017"
     inkscape:window-x="-8"
     inkscape:window-y="-8"
     inkscape:window-maximized="1"
     inkscape:current-layer="layer1" /><defs
     id="defs2" /><g
     inkscape:label="Layer 1"
     inkscape:groupmode="layer"
     id="layer1"
     transform="translate(-9222.5251,624.9897)"><g
       id="g3684"
       transform="translate(65.426602,-21.602094)"><path
         id="text2545-1"
         style="font-weight:900;font-size:22.6665px;line-height:1;font-family:Montserrat;-inkscape-font-specification:'Montserrat Heavy';text-align:center;text-anchor:middle;fill:#a0892c;fill-opacity:1;stroke:none;stroke-width:5.35429;stroke-linecap:square;stroke-linejoin:bevel;stroke-dasharray:16.063, 16.063;paint-order:stroke fill markers"
         d="m 9222.173,-594.41436 -0.052,0.006 -0.082,0.007 c -0.1226,0.009 -0.1568,0.0331 -0.2253,0.0574 -0.034,0.0123 -0.066,0.0242 -0.099,0.0388 -0.026,0.0119 -0.042,0.005 -0.097,0.0517 0,0.003 -0.011,0.0114 -0.019,0.0155 -0.019,0.01 -0.049,0.0224 -0.079,0.0351 -0.03,0.0126 -0.059,0.0241 -0.08,0.0315 -0.021,0.007 -0.057,0.009 0.01,0.003 -0.1276,0.009 -0.1561,0.0455 -0.1984,0.0739 -0.042,0.0281 -0.079,0.0579 -0.1137,0.0977 0,-0.003 -0.047,0.0216 -0.01,0.01 v 0.002 c -0.1558,0.0475 -0.212,0.10355 -0.307,0.17777 -0.025,0.019 -0.055,0.0387 -0.074,0.0496 -0.092,0.0136 -0.1115,0.041 -0.1504,0.0641 -0.046,0.027 -0.088,0.0571 -0.1313,0.094 -0.013,0.0112 -0.028,0.0217 -0.039,0.0295 0.012,-0.002 0.029,-0.004 0.055,-0.007 -0.022,0.002 -0.04,0.006 -0.058,0.01 -5e-4,10e-5 0,-10e-5 0,0 v 0.003 c -0.01,0.002 -0.01,0.001 -0.012,5.1e-4 0,-9.5e-4 0.01,-0.002 0.011,-0.003 0,7.3e-4 -0.01,8.1e-4 -0.017,0.003 v 5.1e-4 c -2e-4,-2.8e-4 0,4.2e-4 0,0 h -5e-4 c -0.076,0.0193 -0.119,0.0541 -0.1767,0.0909 -0.077,0.0491 -0.1749,0.11741 -0.3184,0.22221 -0.028,0.0203 -0.058,0.0398 -0.079,0.0512 v 0.002 c -0.055,0.0118 -0.091,0.033 -0.1251,0.0558 -0.019,0.0123 -0.035,0.0396 -0.052,0.0558 -0.025,0.009 -0.063,0.0142 -0.085,0.0258 -0.043,0.0226 -0.083,0.0493 -0.1266,0.0946 0.037,-0.0383 -2e-4,-0.004 -0.03,0.0155 -0.033,0.0203 -0.078,0.0458 -0.1184,0.0656 -0.061,0.0297 -0.1178,0.0616 -0.1695,0.0946 -0.045,0.0288 -0.081,0.0525 -0.1343,0.10852 -7e-4,7.3e-4 0,8.8e-4 0,0.002 -0.01,0.007 -0.01,0.005 -0.017,0.0145 0.01,-0.007 0.01,-0.007 0.013,-0.0129 -0.01,0.004 -0.029,0.007 -0.035,0.0103 -0.025,0.0123 -0.047,0.0234 -0.07,0.0377 -0.048,0.0285 -0.099,0.0639 -0.152,0.10284 -0.083,0.0606 -0.2122,0.14317 -0.2227,0.14883 -0.1069,0.0584 -0.1574,0.0907 -0.448,0.28629 -0.061,0.0416 -0.1234,0.0867 -0.1757,0.1266 -0.05,0.038 -0.083,0.0632 -0.1282,0.10852 0.01,-0.002 0.013,-0.007 0.03,-0.0119 -0.011,0.004 -0.018,0.008 -0.029,0.0119 -6e-4,6e-4 0,8.9e-4 0,0.002 -0.012,0.005 -0.04,0.008 -0.05,0.0129 -0.028,0.0124 -0.052,0.0242 -0.075,0.0382 -0.048,0.028 -0.096,0.0611 -0.1437,0.0992 -0.026,0.0203 -0.057,0.0419 -0.077,0.0532 v 0.002 c 0.01,-0.002 0.011,-0.005 0.054,-0.008 h 0.01 c -0.03,0.002 -0.051,0.007 -0.072,0.0103 0,5.6e-4 -0.01,8.9e-4 -0.01,0.002 -0.087,0.0186 -0.108,0.0527 -0.1436,0.0796 -0.045,0.0339 -0.085,0.071 -0.1235,0.11524 v 0.002 c -0.016,0.0195 -0.037,0.0408 -0.048,0.0512 v 0.002 c -0.051,0.0234 -0.087,0.0456 -0.1302,0.0739 -0.063,0.0409 -0.134,0.0894 -0.2031,0.13901 -0.069,0.0497 -0.137,0.0981 -0.1907,0.14056 -0.027,0.0212 -0.049,0.0408 -0.072,0.061 -0.012,0.0101 -0.022,0.0195 -0.037,0.0351 0,0.002 -0.01,0.007 -0.01,0.01 -0.058,0.0225 -0.1307,0.0358 -0.1861,0.0672 -0.098,0.0558 -0.1937,0.11938 -0.2785,0.20309 -0.019,0.0178 -0.04,0.0357 -0.051,0.0434 v 0.002 c -0.027,0.008 -0.047,0.0165 -0.061,0.0238 -0.028,0.0149 -0.054,0.0299 -0.082,0.0481 -0.056,0.0361 -0.1181,0.0814 -0.1824,0.13126 -0.1854,0.14327 -0.3106,0.23521 -0.848,0.61288 -0.032,0.0227 -0.066,0.0436 -0.088,0.0563 -0.01,0.003 -0.01,0.003 -0.01,0.005 0,8.2e-4 -0.01,0.002 -0.01,0.003 -0.016,0.006 -0.028,0.0116 -0.037,0.016 -0.019,0.009 -0.03,0.0154 -0.043,0.0227 -0.024,0.0148 -0.047,0.0295 -0.074,0.0475 -0.048,0.0327 -0.1015,0.076 -0.1582,0.1204 -0.044,-0.21382 -0.095,-0.44741 -0.1457,-0.60823 v -0.002 -0.002 c -0.026,-0.0814 -0.068,-0.21833 -0.096,-0.30592 -0.043,-0.14377 -0.1246,-0.29331 -0.2651,-0.38551 -0.1405,-0.0922 -0.3002,-0.11066 -0.4553,-0.10542 -0.1487,0.005 -0.3069,0.0194 -0.446,0.13229 -0.139,0.1129 -0.1876,0.26103 -0.2273,0.40825 v 0.002 c -0.046,0.17282 -0.075,0.4138 -0.094,0.64492 -0.01,0.11556 -0.016,0.22474 -0.017,0.31677 -7e-4,0.0461 0,0.0866 0,0.12816 0,0.0302 -0.01,0.0535 0.016,0.11214 v 5.2e-4 c 0,0.01 0.01,0.018 0.013,0.03 0,0.01 3e-4,0.0216 0.01,0.0346 0.01,0.052 0.011,0.12464 0.016,0.20154 0,0.0774 0.01,0.15204 0.013,0.21291 0,0.0323 0.01,0.0598 0.013,0.0915 0,0.0158 0.01,0.032 0.015,0.0579 0.01,0.013 0.01,0.0284 0.022,0.0522 0.01,0.0119 0.016,0.0258 0.029,0.0434 0.012,0.0161 0.052,0.0526 0.059,0.0594 0.014,0.0105 0.043,0.0127 0.062,0.0222 -0.1501,0.11057 -0.3063,0.22602 -0.5395,0.40825 -0.043,0.0338 -0.07,0.0513 -0.1106,0.0816 0,-0.0274 -0.01,-0.0397 -0.01,-0.0692 -0.01,-0.15372 -0.06,-0.55565 -0.1504,-1.28003 -0.014,-0.11796 -0.018,-0.31741 -0.016,-0.33279 v -0.005 -0.005 c 0.011,-0.11572 0.015,-0.23164 -0.035,-0.35657 -0.05,-0.12494 -0.1439,-0.21345 -0.2305,-0.27853 -0.1027,-0.0771 -0.2002,-0.11114 -0.3069,-0.12816 -0.053,-0.009 -0.1076,-0.0155 -0.1861,0.002 -0.039,0.009 -0.088,0.0244 -0.1421,0.0656 -0.028,0.0217 -0.056,0.0541 -0.079,0.0915 -0.019,0.0319 -0.034,0.0673 -0.042,0.10387 0,-0.006 8e-4,-0.009 0,-0.0129 0,-0.0128 0.01,-0.0236 0.01,-0.032 0.01,-0.0168 0.011,-0.0258 0.015,-0.0336 0.01,-0.0157 0.013,-0.0215 0.016,-0.0253 v -0.002 c -0.01,0.009 -0.028,0.0285 -0.048,0.045 v 0.002 0.002 c -0.052,0.0447 -0.1458,0.14501 -0.1778,0.25941 -0.032,0.1144 -0.026,0.19101 -0.032,0.33435 v 0.002 0.002 c -0.01,0.19331 0.015,0.44236 0.048,0.6258 0.024,0.13537 0.065,0.44008 0.086,0.65112 0.023,0.21883 0.058,0.55903 0.08,0.75706 0.011,0.0949 0.019,0.19388 0.027,0.27699 0.01,0.0739 0.01,0.12096 0.02,0.18086 7e-4,0.005 0,0.0153 0,0.0207 2e-4,5.5e-4 -10e-5,8.9e-4 0,0.002 0,0.0201 0.01,0.0505 0.012,0.0765 -0.01,0.006 -0.016,0.0137 -0.022,0.0181 -0.014,0.01 -0.019,0.0104 0.01,0 -0.01,0.002 -0.044,0.0217 -0.053,0.0269 -0.01,0.006 -0.013,0.0104 -0.019,0.0145 -0.012,0.008 -0.023,0.0166 -0.035,0.0258 -0.024,0.0185 -0.053,0.0407 -0.088,0.0687 -0.07,0.0558 -0.1598,0.1295 -0.2547,0.20929 -0.4702,0.39568 -0.5356,0.45031 -0.6062,0.49816 -0.094,0.0633 -0.1971,0.15245 -0.3685,0.29765 -0.1714,0.14521 -0.3811,0.32592 -0.5808,0.5023 -0.1374,0.12143 -0.3077,0.26753 -0.3566,0.30696 -0.1562,0.1259 -0.6193,0.51285 -0.8097,0.67541 -0.088,0.0751 -0.193,0.17009 -0.2626,0.24339 0,8.2e-4 -0.074,0.0677 -0.1581,0.13953 -0.086,0.0725 -0.192,0.15979 -0.2976,0.24443 -0.1101,0.0881 -0.2113,0.17012 -0.2869,0.23513 -0.038,0.0325 -0.068,0.0614 -0.094,0.0863 -0.013,0.0125 -0.025,0.0223 -0.04,0.0387 -0.01,0.008 -0.016,0.0179 -0.029,0.0367 0,0.004 -0.01,0.0144 -0.011,0.0207 -7e-4,8.2e-4 0,0.002 0,0.003 0,0.002 4e-4,-5.7e-4 0,0.003 -0.015,0.0159 -0.044,0.0458 -0.082,0.0811 -0.075,0.0706 -0.1831,0.16628 -0.2992,0.26096 -0.039,0.0321 -0.079,0.071 -0.1219,0.10904 -0.02,-0.17598 -0.039,-0.35821 -0.052,-0.55914 -0.029,-0.42485 -0.06,-0.69894 -0.099,-0.8909 v 0.0124 c 0,-0.025 -0.017,-0.18821 -0.018,-0.30024 v -0.008 -0.18759 c 0,-0.0285 -0.01,-0.0524 -0.01,-0.0811 0,-0.0143 -3e-4,-0.0304 -0.01,-0.0527 0,-0.007 -0.01,-0.0162 -0.01,-0.0243 v -0.0207 c 0,-0.0308 -0.01,-0.0795 -0.013,-0.12971 v -0.0114 c -0.01,-0.12057 -0.023,-0.29312 -0.037,-0.40979 -0.014,-0.11934 -0.058,-0.46958 -0.098,-0.79013 v -0.002 c -0.041,-0.32543 -0.099,-0.73607 -0.1312,-0.92966 v -0.002 c -0.031,-0.18108 -0.075,-0.45134 -0.094,-0.58756 -0.027,-0.19007 -0.086,-0.40344 -0.1555,-0.60151 -0.07,-0.19807 -0.1305,-0.36254 -0.2444,-0.50746 -0.1269,-0.16133 -0.3008,-0.24237 -0.477,-0.27337 -0.1763,-0.031 -0.3811,-0.018 -0.5473,0.13746 -0.021,0.0195 -0.091,0.0788 -0.125,0.10283 l 0.01,-0.005 c -0.1096,0.0737 -0.1385,0.15808 -0.1571,0.21756 -0.019,0.0595 -0.025,0.10933 -0.029,0.154 0,0.0126 -5e-4,0.0109 0,0.0232 -0.01,0.0217 -0.016,0.0409 -0.019,0.0548 -0.01,0.0329 -0.01,0.0521 -0.01,0.0703 0,0.0365 9e-4,0.0627 0.01,0.093 0,0.0152 3e-4,0.03 0.01,0.0527 0,0.0114 0.01,0.0254 0.016,0.045 0.01,0.01 0.01,0.022 0.017,0.0367 0.01,0.0147 0.041,0.054 0.042,0.0543 v 0.002 c 0.01,0.0303 0.01,0.0576 0.025,0.093 0.019,0.0389 0.046,0.0865 0.1039,0.13281 0.051,0.0401 0.1314,0.0642 0.2051,0.0661 v 5.1e-4 l 0.01,5.2e-4 v -5.2e-4 c 0,-1e-5 0.01,6.1e-4 0.01,5.2e-4 3e-4,0.002 0,0.003 0,0.005 0.039,0.14293 0.083,0.32433 0.1251,0.53278 0.089,0.43253 0.1749,0.96442 0.2274,1.44022 0.011,0.10112 0.023,0.2035 0.032,0.28939 0.01,0.0775 0.012,0.12653 0.022,0.18242 0.022,0.17154 0.065,0.61569 0.1204,1.25315 0.031,0.35502 0.068,0.77995 0.085,0.9524 0.01,0.0797 0.013,0.16357 0.019,0.23668 0.01,0.0599 0.01,0.10471 0.018,0.15554 4e-4,0.005 0,0.0238 0,0.0289 5e-4,0.002 0,0.005 0,0.008 0.012,0.14279 0.05,0.41028 0.1075,0.79685 0.01,0.0569 0.017,0.10831 0.022,0.14987 -0.034,0.0379 -0.087,0.0894 -0.1457,0.14107 -0.1387,0.12284 -0.3359,0.30397 -0.4496,0.4129 -0.103,0.0993 -0.2988,0.28148 -0.4258,0.39532 -0.069,0.0614 -0.1356,0.12476 -0.1918,0.17932 -0.056,0.0546 -0.086,0.0745 -0.139,0.14831 -0.028,0.0377 -0.1041,0.1105 -0.309,0.2868 0,-0.007 -0.022,-0.0191 -0.024,-0.0269 0,-0.0703 -4e-4,-0.11644 -0.013,-0.17983 -0.01,-0.0668 -0.021,-0.14016 -0.038,-0.21239 v -0.002 c -0.014,-0.0632 -0.03,-0.12679 -0.039,-0.1726 -0.01,-0.0322 2e-4,-0.0528 -0.01,-0.0367 v -0.0181 c 0.01,-0.1059 -0.01,-0.13448 -0.02,-0.19998 -0.012,-0.0655 -0.028,-0.13843 -0.043,-0.20826 v -0.003 -0.002 c -0.031,-0.12857 -0.073,-0.31614 -0.086,-0.39222 v -0.005 -0.003 c -0.017,-0.0822 -0.043,-0.22566 -0.064,-0.32505 v -0.007 c -0.01,-0.0441 -0.016,-0.0888 -0.021,-0.11886 -0.01,-0.0209 0,-0.0308 0,-0.0191 v -0.0191 c 0.01,-0.11286 -0.01,-0.1754 -0.045,-0.27699 v -0.005 -0.003 c 0.017,0.0414 -0.019,-0.0738 -0.037,-0.18086 -0.018,-0.10654 -0.036,-0.23586 -0.047,-0.3452 v -0.002 c -0.01,-0.0575 -0.015,-0.10883 -0.032,-0.1602 -0.01,-0.026 -0.018,-0.0518 -0.036,-0.0847 0,-0.003 -0.012,-0.01 -0.012,-0.0129 0.01,-0.10914 -3e-4,-0.19836 -0.054,-0.30386 -10e-5,-0.0249 1e-4,-0.0745 -0.011,-0.003 v -0.0176 -0.0176 c 0.01,-0.0894 10e-5,-0.12959 -0.013,-0.19999 -0.01,-0.0705 -0.023,-0.15227 -0.04,-0.2434 -0.034,-0.18224 -0.079,-0.39809 -0.1292,-0.59376 -0.056,-0.2156 -0.07,-0.28216 -0.1798,-0.76791 v -0.002 -0.002 c -0.034,-0.14659 -0.081,-0.33208 -0.1132,-0.43977 v -0.002 -0.002 c -0.025,-0.0771 -0.093,-0.31187 -0.1494,-0.5054 v -0.003 c -0.056,-0.19989 -0.1286,-0.43543 -0.1596,-0.53433 v -0.002 c -0.032,-0.10019 -0.076,-0.2342 -0.085,-0.26717 v -0.005 -0.007 c -0.052,-0.16352 -0.1478,-0.26441 -0.2558,-0.35037 -0.1081,-0.086 -0.2235,-0.17032 -0.4243,-0.1571 -0.1636,0.0109 -0.2624,0.069 -0.3648,0.13281 -0.051,0.0319 -0.098,0.0674 -0.1437,0.11214 -0.046,0.0446 -0.1111,0.0827 -0.1333,0.23668 v 0.01 0.008 c -0.011,0.12249 0.01,0.11375 0.016,0.14728 0.01,0.0335 0.018,0.0685 0.03,0.10904 0.025,0.081 0.058,0.17837 0.094,0.27957 v 0.002 c 0.2902,0.79831 0.4823,1.47034 0.6087,2.11718 0.013,0.068 0.048,0.24455 0.077,0.39377 0.029,0.15651 0.069,0.3513 0.089,0.44494 v 0.002 0.002 c 0.015,0.0651 0.061,0.31551 0.094,0.51522 0.017,0.10596 0.037,0.20947 0.054,0.29559 0.018,0.0861 0.023,0.12697 0.052,0.20825 v 0.007 0.008 c -0.015,-0.0343 -4e-4,0.005 0.01,0.0429 0.01,0.0383 0.013,0.0866 0.017,0.13126 0.011,0.13315 0.042,0.31105 0.075,0.45785 v 0.002 c 0.028,0.1212 0.066,0.33256 0.08,0.43821 0.033,0.23891 0.066,0.42368 0.1695,0.94723 0.075,0.38121 0.059,0.3106 0.1943,0.93276 0.029,0.13555 0.06,0.26988 0.085,0.37776 0.011,0.0511 0.022,0.0817 0.03,0.11679 -0.089,0.0703 -0.1788,0.14924 -0.2589,0.23564 -0.067,0.0728 -0.2009,0.18287 -0.1855,0.1726 l 0.01,-0.002 c -0.072,0.046 -0.1071,0.0819 -0.1643,0.13591 -0.057,0.0541 -0.1194,0.11878 -0.1778,0.18294 -0.097,0.10654 -0.2457,0.24881 -0.2718,0.27026 -0.062,0.0504 -0.1102,0.0929 -0.1664,0.15503 -0.022,-0.067 -0.059,-0.19222 -0.074,-0.27182 v -0.002 c -0.022,-0.1251 -0.046,-0.2412 -0.08,-0.34055 v -0.005 c -0.025,-0.0785 -0.087,-0.39321 -0.094,-0.49402 -0.01,-0.11443 -0.015,-0.19931 -0.096,-0.33332 v -0.003 c 0.011,0.018 3e-4,-8.1e-4 -0.01,-0.0305 -0.01,-0.0326 -0.016,-0.074 -0.019,-0.10387 v -0.003 -0.002 c -0.01,-0.0595 -0.017,-0.12043 -0.029,-0.17467 -0.011,-0.0542 -0.016,-0.0896 -0.045,-0.1571 0.012,0.0282 -0.032,-0.10751 -0.05,-0.19172 v -0.002 c -0.058,-0.26541 -0.083,-0.37446 -0.1297,-0.49093 v -0.005 -0.003 c 0.016,0.0374 -0.033,-0.11729 -0.056,-0.21911 v -0.002 -0.002 c -0.025,-0.10507 -0.06,-0.25555 -0.083,-0.34572 v -0.002 -0.002 c -0.016,-0.0618 -0.051,-0.22502 -0.069,-0.32814 -0.021,-0.12182 -0.057,-0.2934 -0.08,-0.39533 v -0.002 -0.002 c -0.023,-0.0997 -0.054,-0.23557 -0.061,-0.27182 v -0.0114 -0.0109 c -0.012,-0.0479 -0.042,-0.18049 -0.062,-0.27544 v -0.003 -0.005 c -0.1034,-0.41747 -0.1158,-0.47892 -0.1312,-0.66249 v -0.002 -0.002 c -0.012,-0.12681 -0.015,-0.23128 -0.067,-0.37568 l 0.01,0.0124 c 2e-4,8.2e-4 -0.011,-0.0705 -0.03,-0.15503 l 0.01,0.0305 c -0.01,-0.0568 -0.01,-0.11985 -0.051,-0.22583 v -0.003 c 0.011,0.0288 -0.01,-0.0222 -0.018,-0.0786 -0.012,-0.0587 -0.026,-0.13473 -0.04,-0.21445 -0.027,-0.15944 -0.052,-0.34197 -0.056,-0.40463 v 0.0207 c 0,-0.11526 -0.019,-0.17985 -0.034,-0.26096 -0.036,-0.19446 -0.1424,-0.89635 -0.1586,-1.04645 -0.034,-0.31284 -0.05,-0.47309 -0.1168,-0.64182 v -0.002 -0.0295 -0.1018 c 0,-0.0336 0,-0.0704 -0.03,-0.13436 0,-0.0177 -0.01,-0.0455 -0.01,-0.0723 v -0.0351 c -0.01,-0.21911 -0.037,-0.50446 -0.069,-0.67335 v -0.002 c -0.01,-0.0297 -0.017,-0.14308 -0.03,-0.23667 v -0.0207 c -0.01,-0.0964 -0.023,-0.25119 -0.042,-0.38913 v -0.003 c -0.017,-0.1336 -0.039,-0.31542 -0.05,-0.40462 v 0.005 c -0.011,-0.10601 -0.039,-0.31709 -0.069,-0.49765 v -0.002 c -0.024,-0.15038 -0.047,-0.39546 -0.057,-0.52968 v -0.008 c -0.01,-0.14338 -0.023,-0.31374 -0.035,-0.41237 v -0.003 -0.003 c -0.053,-0.35532 -0.091,-0.6874 -0.1008,-0.85472 -0.032,-0.54366 -0.083,-1.05389 -0.1421,-1.46761 -0.059,-0.41374 -0.107,-0.70657 -0.2113,-0.92656 -0.039,-0.0829 -0.1218,-0.1975 -0.2357,-0.2558 -0.1138,-0.0583 -0.2108,-0.0654 -0.3245,-0.0749 -0.084,-0.007 -0.148,-0.0179 -0.2512,0.007 -0.1033,0.0238 -0.1851,0.09 -0.2289,0.1297 -0.01,0.003 -0.01,0.007 -0.014,0.0103 0.01,-0.003 0.02,-0.007 0.059,-0.0103 h 0.01 c -0.089,0.007 -0.2372,0.0905 -0.2847,0.20206 -0.048,0.11154 -0.03,0.18821 -0.015,0.24753 v -0.008 c 0,0.0139 0.021,0.25616 0.013,0.5271 -0.01,0.27094 -0.032,0.60194 -0.067,0.92139 -0.038,0.34753 -0.061,0.52918 -0.082,0.62735 -0.021,0.0982 -0.03,0.11437 -0.083,0.21911 -0.1844,0.36074 -0.2595,0.87075 -0.2383,1.38235 1e-4,5.8e-4 0,8.8e-4 0,0.002 0,0.17427 0.013,0.39447 0.013,0.47026 v 0.002 c 0,0.22864 0.027,0.63507 0.053,0.90744 0.01,0.0681 0.01,0.22392 0.02,0.35244 0,0.0538 3e-4,0.11129 0.01,0.16484 0,0.0387 -2e-4,0.0716 0.011,0.11628 0,0.0665 0.012,0.14858 0.012,0.22117 v 0.002 0.002 c 0,0.11472 0.01,0.34591 0.022,0.54105 v 0.002 0.003 c 0.022,0.26353 0.016,0.76207 0.01,1.19372 -0.094,-0.093 -0.157,-0.21557 -0.2573,-0.28319 -0.2888,-0.19445 -0.5735,-0.24027 -0.9044,-0.21135 v -0.0109 -0.002 -0.003 c -0.01,-0.0179 -0.027,-0.13809 -0.037,-0.21084 v -0.002 c -0.036,-0.27514 -0.074,-0.48942 -0.1131,-0.65784 v -0.002 -0.002 c -0.013,-0.0536 -0.028,-0.14445 -0.042,-0.21601 v -0.008 c -7e-4,-0.003 0,-0.007 0,-0.009 -0.01,-0.0642 -0.024,-0.14869 -0.037,-0.21601 v -0.003 -0.003 c -0.01,-0.0276 -0.035,-0.22143 -0.051,-0.36587 -0.01,-0.0838 -0.021,-0.16565 -0.034,-0.23564 -0.01,-0.035 -0.014,-0.0663 -0.022,-0.0977 -0.01,-0.0161 -0.02,-0.0441 -0.025,-0.0625 0,-6.5e-4 10e-5,-0.002 0,-0.003 l 0.01,0.0103 v -0.0114 c -1e-4,-0.002 0,-0.0103 0,-0.0129 v -0.0749 c 0,-0.0473 -0.01,-0.0961 -0.019,-0.14573 v -0.005 c -0.011,-0.064 -0.021,-0.1788 -0.035,-0.2651 -0.01,-0.0641 -0.013,-0.18812 -0.024,-0.29765 v -0.007 c -0.01,-0.10388 -0.01,-0.20173 -0.032,-0.32298 l 0.01,0.0331 c -6e-4,-0.006 -0.014,-0.25042 -0.014,-0.45941 -5e-4,-0.16764 -2e-4,-0.27628 -0.017,-0.37878 -0.016,-0.10184 -0.066,-0.22117 -0.1328,-0.29301 -0.1618,-0.17354 -0.4213,-0.23323 -0.6449,-0.18707 -0.064,0.0132 -0.1335,0.0187 -0.2285,0.0956 -0.06,0.0482 -0.065,0.10053 -0.085,0.15555 -0.039,0.0176 -0.077,0.0331 -0.1184,0.0703 -0.026,0.0236 -0.058,0.0515 -0.088,0.11679 -0.025,0.0557 -0.034,0.16696 0.01,0.26045 -0.014,-0.0291 -0.022,-0.0514 -0.023,-0.0589 10e-5,0.01 -2e-4,0.0233 0,0.0465 0,0.0577 -0.01,0.14462 -0.019,0.23565 -0.02,0.18208 -0.054,0.39888 -0.075,0.48317 -0.039,0.15278 -0.088,0.44468 -0.1236,0.72296 v 0.0207 c -0.02,-0.0164 -0.04,-0.0373 -0.057,-0.0481 -0.059,-0.0371 -0.1159,-0.0592 -0.1762,-0.0801 -0.1203,-0.0418 -0.2428,-0.0754 -0.3969,-0.0651 -0.5727,0.0383 -1.292,0.40349 -1.8464,0.86041 -0.3164,0.26084 -0.9075,0.79204 -1.1317,1.01958 -0.057,0.0574 -0.2039,0.19976 -0.3137,0.30127 -0.062,0.0576 -0.1162,0.1104 -0.155,0.15038 -0.02,0.02 -0.034,0.036 -0.045,0.0475 -0.011,0.0115 -0.04,0.037 0,0.003 l -0.093,0.0801 v 0.0305 c -0.027,0.0308 -0.062,0.0685 -0.1007,0.11059 -0.1031,0.1097 -0.2175,0.23657 -0.2915,0.34364 -0.033,0.0444 -0.132,0.1601 -0.1891,0.21601 v 0.002 c -0.043,0.0435 -0.083,0.088 -0.1184,0.13281 -0.018,0.0225 -0.035,0.0446 -0.052,0.0739 -0.012,0.0199 -0.033,0.0344 -0.045,0.0848 -0.01,0.009 -0.014,0.0178 -0.023,0.0269 -0.037,0.0362 -0.066,0.0691 -0.085,0.0915 v 0.005 l -0.091,0.0625 v 0.0579 c -0.026,0.0333 -0.061,0.0746 -0.099,0.12144 -0.048,0.0579 -0.093,0.11479 -0.1302,0.16639 -0.018,0.0258 -0.035,0.0487 -0.051,0.0765 -0.01,0.0139 -0.016,0.0289 -0.025,0.0512 0,0.006 4e-4,0.0258 -0.01,0.032 -0.035,0.0258 -0.067,0.054 -0.1002,0.0853 v 0.003 c -0.078,0.0741 -0.1637,0.17792 -0.3225,0.39378 -0.064,0.0867 -0.1249,0.16902 -0.1716,0.23047 -0.024,0.0307 -0.044,0.0562 -0.057,0.0734 -0.014,0.0174 -0.044,0.0456 0,0.005 v 0.002 0.002 c -0.042,0.0407 -0.038,0.042 -0.053,0.0615 -0.015,0.0194 -0.034,0.0429 -0.054,0.0703 -0.042,0.0549 -0.092,0.12503 -0.1452,0.19844 -0.229,0.31616 -0.4162,0.56252 -0.5529,0.72967 -0.074,0.0901 -0.2036,0.26508 -0.3116,0.4191 -0.088,0.12638 -0.1384,0.19329 -0.1825,0.29455 -0.044,0.10126 -0.025,0.29154 0,0.35347 v 0.002 c 0.045,0.0972 0.1603,0.20052 0.2626,0.24288 0.1022,0.0424 0.2021,0.0622 0.3472,0.0884 0.2277,0.0411 0.5625,0.0355 0.9503,0.0207 0.3878,-0.0147 0.7937,-0.0456 1.0739,-0.093 0.1386,-0.0233 0.4677,-0.0783 0.7281,-0.11989 0.2601,-0.0417 0.4823,-0.0762 0.5535,-0.0894 0.025,-0.005 0.1738,-0.0271 0.3023,-0.046 0.069,-0.0103 0.1381,-0.0232 0.1958,-0.0341 0.057,-0.011 0.081,-0.01 0.1551,-0.0367 -0.04,0.0147 -2e-4,-3.2e-4 0.04,-0.007 0.036,-0.006 0.084,-0.0129 0.1282,-0.0176 0.1081,-0.0116 0.359,-0.0424 0.5715,-0.0703 0.1716,-0.0225 0.6651,-0.0625 1.1044,-0.0899 0.1919,-0.012 0.3631,-0.0204 0.51,-0.0269 0,0.0303 -2e-4,0.06 0.01,0.0899 -2e-4,10e-4 0,0.003 0,0.004 0,0.0269 0.01,0.0537 0.012,0.0816 0,0.008 0.01,0.0191 0.01,0.0274 -5e-4,0.002 -0.01,0.01 -0.01,0.0124 -0.011,0.0405 -0.018,0.0824 -0.023,0.12867 0,0.01 0.01,0.019 0.015,0.0289 -0.01,-0.007 -0.011,-0.0156 -0.016,-0.0238 -4e-4,0.003 0,0.006 0,0.009 -0.014,0.1051 -0.025,0.23823 -0.035,0.40101 -0.061,0.8938 -0.1494,1.95245 -0.2336,2.83445 -0.042,0.44149 -0.083,0.83925 -0.1183,1.14877 -0.036,0.30952 -0.071,0.5456 -0.085,0.60461 -0.091,0.40081 -0.2319,1.5228 -0.293,2.23294 -0.1004,1.17765 -0.1051,1.63248 -0.027,2.46238 0.01,0.10895 0.028,0.30098 0.04,0.43253 v -0.003 c 0.01,0.0792 0.016,0.14956 0.032,0.21446 0.01,0.018 0.013,0.0383 0.02,0.0574 0,0.01 -0.01,0.0191 -0.01,0.0284 0,-0.009 0.01,-0.0244 0.01,-0.0243 0,2e-5 0,-0.002 0,-0.002 0,0.0118 0.01,0.0215 0.012,0.0351 v 5.2e-4 0.008 c 0,0.007 0.011,0.0187 0.014,0.0258 4e-4,0.0361 -0.02,0.0516 0,0.0971 0.012,0.0324 0.043,0.0284 0.064,0.0532 0,0.004 4e-4,0.012 0,0.016 -0.01,0.0309 -0.01,0.0499 -0.01,0.0698 0.032,0.0281 0.059,0.0667 0.084,0.0724 l -0.027,-0.007 c -0.011,-0.004 -0.018,-0.002 -0.059,-0.0346 0,0.0197 0,0.0355 0.01,0.0501 0,3.4e-4 0,4.6e-4 0,10e-4 0,0.011 0.01,0.0218 0.011,0.0341 0.018,0.099 0.046,0.19995 0.1059,0.31006 0.099,0.18197 0.2866,0.28792 0.4703,0.31832 0.1838,0.0304 0.3736,0.002 0.5617,-0.0718 0.4675,-0.18288 0.5748,-0.25167 0.9183,-0.58549 0.2035,-0.19767 0.4335,-0.45622 0.5663,-0.64492 v -0.002 c 0.05,-0.0714 0.1013,-0.13756 0.138,-0.18397 0.016,-0.0198 0.027,-0.0333 0.035,-0.0434 0.053,-0.0399 0.078,-0.0845 0.093,-0.11007 0.02,-0.0365 0.026,-0.0542 0.029,-0.061 l 0.016,-0.0367 v -0.008 c 0.01,-0.008 0.01,-0.0114 0.015,-0.0222 0.027,-0.0436 0.067,-0.10395 0.1085,-0.1633 0.042,-0.0593 0.087,-0.11838 0.1214,-0.16175 0.034,-0.0434 0.1038,-0.0912 0.022,-0.0367 l -0.01,0.005 c 0.1813,-0.11347 0.1758,-0.22341 0.1937,-0.29611 l 0.01,-0.0227 v -0.007 c 0.01,-0.0157 0.039,-0.0377 0.045,-0.0496 0.019,-0.0415 0.026,-0.071 0.032,-0.0915 l 0.01,-0.03 v -0.008 c 0.037,-0.052 0.09,-0.10538 0.1013,-0.14366 0,-8.2e-4 0.01,-0.004 0.01,-0.005 0.014,-0.0166 0.024,-0.0287 0.032,-0.0413 0.017,-0.0251 0.032,-0.049 0.048,-0.077 0.033,-0.0561 0.068,-0.12531 0.1038,-0.19843 0.027,-0.0558 0.059,-0.11122 0.082,-0.14573 0,-0.004 -2e-4,-0.003 0.01,-0.007 -0.013,0.009 -0.034,0.0197 -0.075,0.0357 l -0.01,0.003 c 0.03,-0.0105 0.064,-0.031 0.097,-0.0568 5e-4,-5.5e-4 2e-4,-0.003 0,-0.004 0.047,-0.0377 0.091,-0.0868 0.1137,-0.14366 0.015,-0.0368 0,-0.0555 0.01,-0.0863 0,-0.002 0.012,-0.007 0.014,-0.009 0.025,-0.0293 0.044,-0.0566 0.064,-0.0868 0.04,-0.0605 0.079,-0.1306 0.1167,-0.20619 0.029,-0.0594 0.061,-0.12412 0.09,-0.17466 0.028,-0.0506 0.063,-0.0989 0.048,-0.0801 0.042,-0.0526 0.087,-0.11149 0.1282,-0.18604 l 0.01,-0.008 c 0.013,-0.021 0.039,-0.0589 0.047,-0.0687 v -0.003 c 0.048,-0.0603 0.093,-0.13146 0.1938,-0.30076 v -0.007 c 0.046,-0.0749 0.076,-0.14216 0.109,-0.21911 v -0.002 c 0.01,-0.0149 0.014,-0.0277 0.021,-0.0403 0.039,-0.0288 0.034,-0.0402 0.046,-0.0543 0.015,-0.0188 0.027,-0.0368 0.04,-0.0558 0.025,-0.0379 0.053,-0.0816 0.085,-0.13435 0.064,-0.10566 0.1419,-0.24221 0.218,-0.38448 0.085,-0.15831 0.1193,-0.21886 0.1649,-0.28112 0.062,-0.0853 0.1019,-0.16587 0.1405,-0.26251 v -0.005 c 0.018,-0.0415 0.074,-0.14698 0.1024,-0.19172 v -0.005 c 0.026,-0.0383 0.049,-0.0756 0.069,-0.11007 0.011,-0.018 0.021,-0.0351 0.03,-0.0563 0.01,-0.0106 0.01,-0.0204 0.016,-0.0382 v -0.0129 c 10e-5,-2.3e-4 -2e-4,-0.002 0,-0.002 0.01,-0.013 0.02,-0.0361 0.037,-0.0667 0.034,-0.0614 0.084,-0.15228 0.1473,-0.25942 v -0.005 c 0.047,-0.0767 0.07,-0.1397 0.099,-0.2098 v -0.002 c 0.024,-0.0578 0.073,-0.17288 0.1059,-0.24495 0.3319,-0.72269 0.4176,-0.93334 0.5318,-1.33635 0.1045,-0.36638 0.1692,-0.7604 0.2124,-1.13172 0.025,0.13107 0.043,0.25232 0.096,0.37931 0,0.007 0.039,0.13798 0.048,0.2036 v 0.003 0.003 c 0.031,0.20116 0.059,0.32967 0.1215,0.5426 v 0.002 0.002 c 0.015,0.0481 0.066,0.25454 0.1008,0.41289 0.08,0.35925 0.1557,0.68359 0.2387,1.00821 0.011,0.0411 0.012,0.0541 0.016,0.0786 -0.018,0.0148 -0.036,0.0304 -0.056,0.0481 -0.05,0.0444 -0.1095,0.10016 -0.1726,0.16123 -0.1261,0.12215 -0.258,0.2539 -0.3406,0.35243 -0.094,0.11243 -0.3326,0.38152 -0.5555,0.6258 -0.05,0.0553 -0.097,0.10775 -0.1343,0.15296 -0.019,0.0226 -0.034,0.0433 -0.05,0.0656 -0.01,0.0111 -0.016,0.0214 -0.027,0.0403 0,0.003 -0.01,0.0106 -0.01,0.0145 -0.04,0.0351 -0.071,0.0688 -0.1007,0.10387 -4e-4,0.0207 -0.01,0.0453 -0.01,0.0455 v -0.0351 c 0,-0.003 6e-4,-0.002 6e-4,-0.003 -0.042,0.0502 -0.081,0.10498 -0.136,0.17674 -0.099,0.13054 -0.2165,0.28996 -0.3296,0.44958 -0.113,0.15962 -0.2222,0.31905 -0.3055,0.44649 -0.042,0.0637 -0.078,0.11864 -0.1059,0.16639 -0.014,0.0238 -0.025,0.0447 -0.037,0.0687 -0.011,0.021 -0.024,0.0439 -0.035,0.11059 -0.01,0.0233 -0.055,0.0615 -0.061,0.0785 -0.016,0.0468 -0.023,0.0866 -0.03,0.12661 v 0.0124 0.0114 c -0.01,0.0595 -0.037,0.12501 0.045,0.26562 0.041,0.0703 0.1292,0.13278 0.1953,0.15192 0.066,0.0192 0.1075,0.0167 0.139,0.0145 0.1625,-0.0112 0.2202,-0.0493 0.3199,-0.15503 -0.034,0.0357 0.039,-0.0222 0.049,-0.0258 0.054,-0.0219 0.099,-0.0483 0.1426,-0.0801 0.031,-0.0228 0.063,-0.0433 0.098,-0.0915 0.1145,-0.0398 0.2025,-0.1215 0.2878,-0.22376 0.087,-0.10453 0.1949,-0.25228 0.3659,-0.49403 0.1109,-0.15679 0.2246,-0.31392 0.3173,-0.43873 0.092,-0.12386 0.1736,-0.227 0.1793,-0.23358 v -0.002 c 0.039,-0.0429 0.07,-0.0826 0.091,-0.11059 0.01,-0.0105 0.013,-0.0164 0.017,-0.0227 l 0.069,-0.0589 v -0.0191 c 0.062,-0.0554 0.1225,-0.11582 0.1762,-0.18552 v -0.003 c 0.064,-0.0801 0.1818,-0.21175 0.2915,-0.33279 0.027,0.15255 0.1084,0.46417 0.3597,1.44952 v 0.003 0.002 c 0.057,0.20775 0.1111,0.41122 0.125,0.4625 0.015,0.0536 0.046,0.15877 0.07,0.2465 v -0.002 c 0.027,0.0992 0.066,0.22309 0.099,0.31058 v 0.005 0.005 c 0.013,0.0306 0.043,0.14021 0.048,0.16795 v 0.003 0.003 c 0.018,0.0889 0.037,0.16962 0.056,0.23875 0.01,0.0346 0.019,0.0662 0.03,0.0977 0.01,0.0192 0.015,0.0391 0.027,0.0636 v 0.003 c 0.01,0.0152 0.016,0.0293 0.033,0.0527 l -0.01,-0.0145 c -0.017,-0.0251 -0.019,-0.0286 -0.022,-0.0346 0,0.007 0.01,0.017 0.012,0.032 0.012,0.0347 0.028,0.0847 0.046,0.14366 0.034,0.11785 0.075,0.2686 0.1085,0.40307 v 0.003 0.003 c 0.023,0.0855 0.05,0.15893 0.1044,0.24909 -4e-4,0.0461 -6e-4,0.0886 0.018,0.13952 0.01,0.0316 0.019,0.0757 0.055,0.12041 0.012,0.10308 0.033,0.18293 0.096,0.28939 v 0.003 0.003 c 0,0.002 0.01,0.0147 0.01,0.014 0,-10e-5 4e-4,-0.0105 0,-0.0109 0,0.10863 0.013,0.16711 0.034,0.24494 0.024,0.0899 0.054,0.18333 0.093,0.26872 -0.012,-0.0249 0.036,0.10576 0.07,0.21756 0.034,0.11179 0.07,0.2379 0.085,0.29921 0.022,0.0926 0.062,0.2208 0.099,0.33486 v 0.003 0.002 c 0.031,0.0919 0.069,0.23968 0.074,0.26717 0.013,0.0904 0.034,0.16282 0.1054,0.26768 0,8.2e-4 -7e-4,0.002 0,0.003 0.01,0.0127 4e-4,0.018 0.013,0.032 -0.01,-0.0112 -0.01,-0.0113 -0.013,-0.0222 0.01,0.0431 0.01,0.0974 0.015,0.13281 0.016,0.0577 0.035,0.11728 0.059,0.17725 v -0.005 c 0.034,0.0879 0.088,0.24377 0.107,0.31161 v 0.002 c 0.029,0.098 0.048,0.1724 0.085,0.25477 0.1034,0.23111 0.162,0.42446 0.1633,0.43511 0.01,0.0525 0.016,0.0995 0.039,0.15658 0.011,0.0263 0.026,0.0566 0.056,0.0946 0.01,0.022 -3e-4,0.0548 0.01,0.078 0.019,0.0698 0.045,0.14307 0.074,0.21498 0.029,0.0719 0.06,0.14155 0.095,0.20619 0.024,0.0469 0.061,0.0919 0.099,0.13901 l -0.075,0.18913 0.277,0.0625 c 0.012,0.007 0.021,0.0247 0.032,0.03 0.1061,0.0515 0.1656,0.0389 0.2196,0.0357 0.026,-0.002 0.052,-0.002 0.096,-0.0114 0.043,-0.009 0.1242,-0.0329 0.1917,-0.11369 0.052,-0.0623 0.052,-0.12179 0.057,-0.17311 0.021,-0.0172 0.043,-0.009 0.059,-0.0315 0.079,-0.11388 0.075,-0.21233 0.07,-0.293 -0.01,-0.16133 -0.052,-0.33933 -0.1312,-0.66404 -0.028,-0.11525 -0.061,-0.23151 -0.092,-0.33125 -0.03,-0.0984 -0.049,-0.16452 -0.09,-0.24495 v -0.003 c -0.01,-0.0208 -0.025,-0.0701 -0.037,-0.11162 v -0.0367 c 0,-0.0288 0,-0.0592 -0.028,-0.12195 0,-0.0155 -0.037,-0.11846 -0.071,-0.22428 v -0.007 c -0.036,-0.11834 -0.075,-0.2332 -0.094,-0.28319 0,0.007 -0.011,-0.0407 -0.02,-0.0801 v -0.002 c -0.03,-0.18061 -0.058,-0.31046 -0.1473,-0.42116 l 0.01,0.007 c 0.043,0.0578 0.023,0.0393 0.017,0.0207 -0.01,-0.0144 -0.01,-0.0358 -0.013,-0.0558 v -0.016 c -0.01,-0.0561 -0.016,-0.10854 -0.032,-0.15709 -0.011,-0.0363 -0.014,-0.0667 -0.043,-0.11214 0,0.006 -0.011,-0.002 -0.012,-0.009 v -0.0134 c -0.012,-0.0161 -0.026,-0.033 -0.047,-0.0537 0.022,0.0225 0.036,0.038 0.046,0.0501 -0.01,-0.0178 -0.01,-0.0399 -0.01,-0.0641 v 0.0336 c 0,-0.0598 -0.01,-0.11476 -0.019,-0.1695 -0.01,-0.0274 -0.013,-0.0555 -0.025,-0.0884 -0.01,-0.0138 -0.011,-0.0304 -0.02,-0.0486 0,-8.1e-4 -0.01,-0.003 -0.01,-0.007 v -0.015 c 0,-0.006 -0.01,-0.0114 -0.012,-0.0176 0,0.003 0.01,0.009 0.011,0.0119 0,-0.0119 -0.01,-0.0223 -0.01,-0.0367 v 0.0176 c -0.011,-0.11166 -0.021,-0.19563 -0.088,-0.31884 0.01,0.007 -0.046,-0.13463 -0.07,-0.23823 -0.034,-0.13911 -0.084,-0.31365 -0.1189,-0.41755 v -0.002 c -0.05,-0.14886 -0.3362,-1.08627 -0.3596,-1.17408 v -0.003 -0.005 c 0,-0.0107 -0.031,-0.13242 -0.059,-0.23513 -0.03,-0.1233 -0.094,-0.33275 -0.1617,-0.51831 v -0.002 c -0.052,-0.14636 -0.1288,-0.45216 -0.1519,-0.61443 v -0.002 c -0.016,-0.11193 -0.038,-0.21329 -0.061,-0.29921 -0.012,-0.0429 -0.022,-0.081 -0.039,-0.12144 -0.01,-0.0143 -0.039,-0.0444 -0.045,-0.061 v -0.0434 c -0.01,-0.0338 -0.01,-0.0647 -0.015,-0.0992 -0.015,-0.069 -0.037,-0.14565 -0.062,-0.22531 v -0.002 c -0.038,-0.12097 -0.101,-0.36575 -0.1281,-0.50591 v -0.003 c -0.016,-0.084 -0.034,-0.16455 -0.05,-0.23202 -0.01,-0.0342 -0.016,-0.0651 -0.024,-0.093 -0.01,-0.0243 -0.012,-0.0455 -0.032,-0.0863 0.023,0.049 0,0.007 0,-0.0253 -0.01,-0.0329 -0.016,-0.0773 -0.021,-0.11679 v -0.003 -0.005 c -0.017,-0.10781 -0.032,-0.2114 -0.08,-0.33279 v -0.003 c -0.026,-0.0676 -0.045,-0.13714 -0.052,-0.18707 v -0.0284 c 0,-0.006 0.01,-0.009 0.01,-0.0145 0.033,-0.0361 0.082,-0.0831 0.1297,-0.12351 0.061,-0.0523 0.117,-0.10291 0.1628,-0.14728 0.023,-0.0222 0.043,-0.0421 0.064,-0.0656 0.01,-0.0117 0.02,-0.0236 0.035,-0.045 0,-0.002 0.01,-0.008 0.01,-0.0108 v -0.003 c 0.019,-0.0177 0.051,-0.0463 0.086,-0.0734 0.05,-0.038 0.095,-0.0749 0.1344,-0.11214 0.02,-0.0187 0.037,-0.0374 0.057,-0.0625 0.011,-0.0125 0.022,-0.0263 0.037,-0.0512 v -0.008 c 0,-0.002 -3e-4,-0.002 0.01,-0.005 v 0.002 c 0.162,-0.1168 0.3283,-0.27338 0.4914,-0.44648 0.018,0.0704 0.034,0.12762 0.054,0.20464 0.09,0.33608 0.199,0.74545 0.2434,0.91053 0.044,0.16643 0.1131,0.41747 0.1488,0.55501 v 0.002 c 0.036,0.13471 0.08,0.32821 0.088,0.37775 0.01,0.0532 0.018,0.10208 0.03,0.14728 0.01,0.0238 0.014,0.0465 0.024,0.0723 0.01,0.0158 0.01,0.0315 0.022,0.0574 0,0.0125 0.01,0.025 0.01,0.0413 10e-5,7.2e-4 -2e-4,0.002 0,0.003 2e-4,0.002 0,0.003 0,0.005 5e-4,0.003 0,0.009 0,0.0124 -8e-4,-0.004 0,-0.007 -0.01,-0.0114 v 0.005 l 0.01,0.008 c 0.016,0.11378 0.053,0.28235 0.096,0.46147 0.021,0.0862 0.04,0.17239 0.056,0.2434 0.013,0.0577 0.021,0.0923 0.03,0.13126 0.013,0.0756 0.024,0.10312 0.047,0.17466 0.021,0.0715 0.049,0.15908 0.079,0.2465 0.1209,0.36377 0.3083,0.63376 0.5933,0.74724 0.1025,0.0407 0.2483,0.0635 0.3767,0.0331 0.1284,-0.0304 0.2302,-0.0889 0.355,-0.16639 0.083,-0.0521 0.1471,-0.0867 0.2176,-0.1695 0.07,-0.0828 0.1018,-0.20494 0.109,-0.27027 v -0.003 -0.003 c 0.023,-0.26293 -0.1901,-0.4221 -0.4263,-0.46406 0,-0.004 -0.01,-0.0134 -0.018,-0.032 v -0.003 c -0.022,-0.0428 -0.043,-0.0842 -0.053,-0.10593 v 0.003 l -5e-4,-0.004 c -0.01,-0.009 -0.01,-0.0131 0,-0.008 -0.01,-0.0469 -0.012,-0.0863 -0.022,-0.11369 -0.015,-0.0414 -0.034,-0.083 -0.054,-0.12505 v -0.008 l -0.01,-0.007 c 0.012,0.0204 -0.027,-0.0929 -0.033,-0.14211 v 0.0171 c -0.01,-0.10838 -0.025,-0.21717 -0.045,-0.31212 -0.01,-0.0475 -0.021,-0.0902 -0.034,-0.13229 -0.012,-0.0355 2e-4,-0.0619 -0.057,-0.13178 0,-0.0142 -0.01,-0.0308 -0.012,-0.0522 -0.014,-0.0669 -0.03,-0.157 -0.037,-0.23358 -0.012,-0.13372 -0.047,-0.27705 -0.094,-0.45475 -0.047,-0.17903 -0.1017,-0.36215 -0.152,-0.49454 v 0.002 c -0.016,-0.0445 -0.061,-0.21119 -0.079,-0.30696 v -0.002 c -0.012,-0.0665 -0.025,-0.12931 -0.039,-0.18552 -0.01,-0.0284 -0.016,-0.0553 -0.024,-0.0817 -0.01,-0.0189 -0.013,-0.0384 -0.028,-0.0672 -0.01,-0.0114 -0.01,-0.0194 -0.02,-0.0367 0.014,0.0215 0.016,0.0272 0.019,0.0326 0,-0.008 -0.01,-0.0207 -0.012,-0.0393 -0.01,-0.0405 -0.021,-0.0978 -0.03,-0.15348 v -0.002 c -0.024,-0.14886 -0.063,-0.32022 -0.1028,-0.43977 v -0.002 c -0.055,-0.16979 -0.1585,-0.51435 -0.1886,-0.64027 v -0.002 -0.003 c -0.014,-0.0555 -0.013,-0.0393 -0.016,-0.0574 0.066,-0.0609 0.1238,-0.11332 0.2899,-0.26923 0.1425,-0.1336 0.2979,-0.27526 0.4243,-0.38861 0.1239,-0.11123 0.2458,-0.21118 0.2269,-0.19843 l 0.01,-0.003 c 0.034,-0.0232 0.063,-0.0475 0.093,-0.077 0.016,-0.0155 0.032,-0.0312 0.051,-0.0589 0,-0.006 0.01,-0.016 0.013,-0.0227 0.01,-0.009 0.017,-0.0177 0.032,-0.0331 0.039,-0.0397 0.095,-0.0946 0.1535,-0.15037 0.058,-0.0558 0.1188,-0.11371 0.1685,-0.15865 0.05,-0.0449 0.1046,-0.0873 0.085,-0.0734 0.023,-0.0155 0.036,-0.0323 0.053,-0.0465 8e-4,0.004 0,0.007 0,0.0114 v 0.002 c 0.054,0.29981 0.1115,0.60857 0.152,0.75809 0.025,0.10284 0.066,0.28319 0.088,0.39222 0.025,0.13558 0.058,0.279 0.088,0.37311 0.019,0.0683 0.065,0.2394 0.099,0.3855 v 0.002 c 0.02,0.0811 0.039,0.16074 0.057,0.22841 0.018,0.0677 0.023,0.10023 0.053,0.17157 l -0.01,-0.008 c -0.01,-0.0183 0.021,0.06 0.047,0.14263 0.025,0.0825 0.057,0.18943 0.09,0.29766 0.066,0.21738 0.1238,0.4089 0.1602,0.50539 v 0.003 0.002 c 0.012,0.0301 0.059,0.16521 0.09,0.26407 0.1815,0.57716 0.4397,1.21321 0.6832,1.71876 0.1217,0.25278 0.24,0.47062 0.3472,0.63975 0.054,0.0846 0.1025,0.15648 0.1582,0.21963 0.056,0.0632 0.095,0.14003 0.2692,0.17104 0.098,0.0172 0.15,0.0141 0.2284,0.0145 0.065,10e-5 0.1396,0.002 0.2356,-0.0398 0.085,-0.0376 0.1337,-0.10203 0.1695,-0.15038 0.01,-0.002 0.01,1.8e-4 0.01,-0.002 0.056,-0.025 0.1321,-0.0886 0.1664,-0.1664 0.069,-0.15569 0.016,-0.24009 -0.01,-0.29611 -0.047,-0.11169 -0.1105,-0.2039 -0.2227,-0.37465 v -0.002 c -0.026,-0.0402 -0.2042,-0.39334 -0.2718,-0.56637 v -0.002 -0.002 c -0.02,-0.0476 -0.04,-0.0913 -0.064,-0.1328 -0.012,-0.0208 -0.024,-0.0412 -0.043,-0.0656 -2e-4,-3.2e-4 0,-0.002 0,-0.002 -0.01,-0.0233 -0.01,-0.0684 -0.016,-0.091 -0.019,-0.0499 -0.043,-0.0998 -0.072,-0.14883 l -0.01,-0.0114 c -0.015,-0.0279 -0.03,-0.057 -0.035,-0.0703 0,-0.0353 0,-0.0696 -0.016,-0.10852 -0.011,-0.0325 -0.022,-0.076 -0.058,-0.11937 -0.013,-0.0849 -0.033,-0.16215 -0.069,-0.24546 v -0.003 c -0.049,-0.11828 -0.089,-0.22491 -0.1757,-0.47853 -0.042,-0.12214 -0.1056,-0.30249 -0.1473,-0.41289 v -0.002 c -0.034,-0.0918 -0.084,-0.2502 -0.093,-0.29301 v -0.005 -0.003 c -0.032,-0.1362 -0.063,-0.25856 -0.091,-0.35708 -0.028,-0.0985 -0.038,-0.15247 -0.083,-0.23978 v -0.002 -0.003 c 0.031,0.0583 0.01,-0.007 -0.01,-0.0512 -0.014,-0.0974 -0.042,-0.21151 -0.08,-0.33279 v -0.002 -0.003 c -0.03,-0.0893 -0.062,-0.21242 -0.077,-0.26717 v -0.002 c -0.013,-0.0495 -0.045,-0.16612 -0.072,-0.26096 v -0.005 -0.003 c -0.021,-0.0676 -0.048,-0.19177 -0.056,-0.23513 -0.016,-0.0871 -0.05,-0.22306 -0.079,-0.34417 v -0.003 -0.002 c -0.035,-0.13748 -0.106,-0.50833 -0.1628,-0.84026 -0.029,-0.16596 -0.055,-0.32503 -0.072,-0.44649 -0.01,-0.0429 -0.01,-0.0725 -0.013,-0.10387 0.055,-0.0501 0.1725,-0.15639 0.2676,-0.24339 0.1018,-0.093 0.2132,-0.19986 0.2832,-0.27699 v -0.002 c 0.022,-0.0208 0.1058,-0.0712 0.061,-0.0532 v -0.002 c 0.095,-0.0387 0.1378,-0.11305 0.1902,-0.185 0.024,-0.007 0.047,-0.007 0.072,-0.0212 0.039,-0.0215 0.099,-0.0607 0.1354,-0.13539 0.01,-0.009 0.017,-0.0174 0.03,-0.0279 v -0.002 c 0.078,-0.0629 0.1183,-0.10018 0.1762,-0.14986 0,0.0123 -3e-4,0.025 0.01,0.0367 v 0.002 0.002 c 0.019,0.0913 0.057,0.30235 0.085,0.45733 0.063,0.35203 0.2084,1.00419 0.2816,1.24851 0.01,0.026 0.015,0.0578 0.02,0.0817 0,0.008 3e-4,0.0145 0.01,0.0217 -0.01,0.0787 0.013,0.0961 0.019,0.13487 0.011,0.0456 0.026,0.0924 0.045,0.14056 l -0.01,-0.0109 c 0.022,0.066 0.061,0.19183 0.072,0.24443 v 0.003 0.002 c 0.062,0.27757 0.1292,0.53038 0.2692,1.02268 0.1025,0.35913 0.2779,0.98876 0.2915,1.04024 v 0.002 0.002 c 0.019,0.0695 0.043,0.13894 0.075,0.20877 v 0.005 0.005 c -0.01,-0.0186 0.023,0.074 0.029,0.10697 0.047,0.27322 0.1796,0.62894 0.3261,0.86765 0.061,0.0992 0.1305,0.18971 0.2356,0.2589 0.1055,0.0694 0.2419,0.0979 0.3551,0.0899 0.1317,-0.009 0.2345,-0.0561 0.325,-0.12041 0.091,-0.0644 0.1896,-0.14194 0.2139,-0.32608 v -0.002 c 0.011,-0.0835 2e-4,-0.11402 -0.011,-0.14417 -0.01,-0.0305 -0.018,-0.0558 -0.029,-0.0801 -0.02,-0.0466 -0.045,-0.0917 -0.075,-0.13746 v -0.005 c -0.019,-0.0339 -0.053,-0.13045 -0.048,-0.10387 v 0.0129 c -0.01,-0.0438 -0.016,-0.0806 -0.027,-0.11679 -0.01,-0.0278 -0.01,-0.0435 -0.032,-0.0884 0,-0.005 10e-5,-0.009 -0.01,-0.0124 -0.01,-0.0226 -0.013,-0.0527 -0.019,-0.0816 v -0.008 c -0.018,-0.10932 -0.048,-0.21982 -0.064,-0.27699 v -0.002 c -0.019,-0.0688 -0.047,-0.1586 -0.059,-0.20154 v -0.003 -0.002 c -0.013,-0.0444 -0.043,-0.15968 -0.057,-0.22892 v -0.002 -0.002 c -0.042,-0.19021 -0.1686,-0.69092 -0.2992,-1.19579 -0.091,-0.35001 -0.161,-0.62806 -0.2098,-0.82734 -0.049,-0.1993 -0.079,-0.34895 -0.077,-0.33383 v 0.0232 c -0.01,-0.14054 -0.039,-0.20678 -0.057,-0.27802 v -0.003 -0.003 c -0.086,-0.29736 -0.1482,-0.57101 -0.2175,-0.9524 -0.042,-0.22621 -0.089,-0.47899 -0.1106,-0.58084 v -0.002 -0.002 c -0.019,-0.0857 -0.052,-0.24602 -0.074,-0.35037 -0.01,-0.049 -0.019,-0.10159 -0.024,-0.14108 -0.01,-0.0399 0.01,-0.0843 -0.01,-0.0207 v -0.0191 -0.0191 -0.14263 c -0.01,-0.0413 -0.018,-0.0907 -0.056,-0.15813 0,-0.002 0.01,-0.002 0.01,-0.003 10e-5,8.2e-4 -3e-4,-0.002 0,-0.002 0.012,-0.009 0.026,-0.017 0.039,-0.0258 0.046,-0.0342 0.09,-0.0727 0.1329,-0.11317 0.043,-0.0405 0.082,-0.0814 0.1183,-0.12661 0.014,-0.0173 0.029,-0.0377 0.043,-0.0605 0.013,-0.007 0.026,-0.0153 0.039,-0.0227 0.05,-0.0298 0.1016,-0.0646 0.1519,-0.10077 0.05,-0.0362 0.097,-0.0726 0.139,-0.10852 0.021,-0.0179 0.041,-0.0341 0.062,-0.0563 0.014,-0.0142 0.036,-0.0644 0.057,-0.10077 -0.01,0.005 -0.013,0.0399 -0.016,0.0429 0.01,-0.007 0.027,-0.0192 0.047,-0.0315 v -0.002 c 0.1267,-0.0801 0.2652,-0.20243 0.4046,-0.33435 0.061,-0.0572 0.122,-0.11269 0.168,-0.1509 0.023,-0.0191 0.043,-0.0339 0.052,-0.0413 0.055,-0.0233 0.082,-0.0469 0.1132,-0.0718 0.038,-0.0301 0.071,-0.0627 0.106,-0.10438 -0.026,0.0315 0.043,-0.0429 0.1183,-0.10697 0.074,-0.0641 0.1695,-0.1434 0.2656,-0.22066 0.1797,-0.14432 0.3367,-0.27615 0.4723,-0.39223 0.011,0.0731 0.02,0.12817 0.029,0.20154 0.062,0.48234 0.099,0.74222 0.1359,0.94723 v 0.002 0.002 c 0.018,0.0942 0.044,0.26383 0.052,0.34571 v 0.003 0.002 c 0.046,0.36234 0.1411,0.96263 0.2015,1.26762 v 0.002 c 0.039,0.19365 0.074,0.3949 0.1075,0.60151 0.036,0.23376 0.095,0.53865 0.1374,0.71882 0.018,0.076 0.066,0.30305 0.1024,0.48163 v -0.002 c 0.101,0.51419 0.1082,0.54455 0.1519,0.73277 v -0.002 c 0.1333,0.59643 0.2254,1.01277 0.2594,1.16066 0.036,0.16409 0.083,0.345 0.1297,0.50384 0.047,0.15981 0.085,0.28325 0.1359,0.38912 0.064,0.13135 0.1586,0.23195 0.2832,0.29611 0.1177,0.0605 0.3149,0.0877 0.4672,-0.0289 0.02,-0.006 0.028,-0.0125 0.04,-0.0176 0.022,-0.009 0.041,-0.0183 0.061,-0.0284 0.039,-0.0193 0.08,-0.0422 0.1215,-0.0677 v -0.002 c 0.066,-0.0395 0.1299,-0.0829 0.1876,-0.15193 0.058,-0.0696 0.1048,-0.17614 0.1069,-0.28164 0,-0.14543 -0.079,-0.22535 -0.1472,-0.31678 0,-0.004 0.01,-0.009 0.01,-0.0129 0.016,-0.0791 0.01,-0.13867 -0.01,-0.19327 -0.025,-0.0915 -0.066,-0.18278 -0.1716,-0.25012 -0.01,-0.008 -0.01,-0.0132 -0.016,-0.0269 -0.021,-0.0454 -0.039,-0.11439 -0.042,-0.13126 v -0.003 -0.005 c -0.01,-0.0434 -0.014,-0.086 -0.024,-0.12815 -0.01,-0.0211 -0.012,-0.0408 -0.022,-0.0667 0,-0.004 -0.011,-0.0166 -0.013,-0.0212 -2e-4,-0.002 4e-4,7.5e-4 0,-0.002 0,-0.0185 -0.01,-0.0545 -0.01,-0.0899 0,-0.0685 -0.01,-0.13039 -0.02,-0.19327 -0.01,-0.0315 -0.016,-0.0639 -0.034,-0.10438 -0.01,-0.0145 -0.019,-0.0337 -0.035,-0.0543 -5e-4,-0.002 0,-0.003 0,-0.007 -0.01,-0.0251 -0.018,-0.0748 -0.024,-0.12351 v -0.002 c -0.031,-0.22983 -0.061,-0.37757 -0.1695,-0.86713 v -0.002 c -0.025,-0.11813 -0.058,-0.29837 -0.066,-0.36277 -0.01,-0.0547 -0.014,-0.10524 -0.024,-0.15038 -0.01,-0.0226 -0.011,-0.0432 -0.017,-0.0656 -0.01,-0.0125 -0.01,-0.0242 -0.013,-0.0419 0,0.002 -3e-4,2.9e-4 -0.01,-0.002 v -0.0119 c -0.01,-0.0131 -0.011,-0.0242 -0.028,-0.0491 0.02,0.0298 0.023,0.0372 0.027,0.046 0,-0.007 -0.01,-0.011 -0.01,-0.0207 -0.01,-0.0336 -0.015,-0.0822 -0.021,-0.13074 -0.016,-0.13369 -0.053,-0.34068 -0.085,-0.49196 v -0.002 c -0.027,-0.12953 -0.071,-0.38392 -0.096,-0.54416 -0.027,-0.17616 -0.071,-0.4068 -0.1008,-0.53795 v -0.005 -0.003 c -0.014,-0.056 -0.026,-0.11313 -0.034,-0.15193 0,-0.0135 -10e-5,-0.0192 -0.01,-0.0258 2e-4,-0.002 -2e-4,-0.002 0,-0.005 -2e-4,-8.1e-4 0,-0.006 0,-0.007 0.01,-0.11652 -0.01,-0.1753 -0.022,-0.25787 v -0.002 c -0.01,-0.0378 -0.054,-0.33544 -0.094,-0.63666 -0.04,-0.29948 -0.08,-0.62823 -0.099,-0.81442 v -0.005 c -0.012,-0.12708 -0.037,-0.29407 -0.061,-0.41341 -0.023,-0.1138 -0.056,-0.31224 -0.079,-0.48731 -0.012,-0.0875 -0.021,-0.17165 -0.027,-0.23409 -7e-4,-0.009 0,-0.002 0,-0.0114 0.07,-0.0401 0.127,-0.0796 0.2139,-0.14366 0.1,-0.0737 0.2185,-0.16579 0.3328,-0.25786 0.2025,-0.16311 0.4106,-0.32791 0.509,-0.40515 0.025,0.18294 0.056,0.40013 0.083,0.60358 v 0.002 0.003 c 0.02,0.1301 0.037,0.25734 0.048,0.35502 0.01,0.0488 0.01,0.09 0.011,0.11679 0,0.0268 -0.01,0.0621 0.01,-0.007 v 0.016 0.016 c -0.01,0.0562 2e-4,0.10506 0.01,0.15658 0.01,0.0394 0.011,0.0777 0.038,0.13074 0,0.006 0.011,0.022 0.014,0.0357 0.01,0.0281 0.012,0.0695 0.016,0.10438 v 0.002 c 0.027,0.23005 0.084,0.65639 0.1142,0.83354 0.01,0.053 0.019,0.14486 0.035,0.22738 0.047,0.34091 0.1774,1.1428 0.2259,1.37614 0.014,0.0665 0.027,0.1299 0.035,0.1726 0,0.0166 0,0.0254 0.01,0.032 2e-4,0.002 0,0.009 0,0.0103 -0.01,0.10116 2e-4,0.1486 0.037,0.24288 l -0.01,-0.016 c 0,-0.004 0.05,0.20801 0.085,0.38241 0.068,0.34387 0.2163,0.91521 0.3105,1.20354 0.01,0.0255 0.016,0.0563 0.019,0.078 0,0.0235 -0.01,0.0474 0.01,-0.0124 v 0.008 0.008 c -0.015,0.0937 0.063,0.17808 0.1147,0.26872 1e-4,0.0175 6e-4,0.0336 0,0.0413 0,0.0129 2e-4,0.0211 0.01,0.0289 0,0.0158 0.01,0.0278 0.01,0.0413 0.01,0.0269 0.016,0.0568 0.025,0.0909 0.02,0.0682 0.049,0.15367 0.079,0.24185 0.059,0.17636 0.1157,0.3462 0.1649,0.45475 -0.01,-0.0209 0.031,0.0894 0.05,0.15865 v 0.003 0.002 c 0.02,0.0747 0.032,0.14781 0.1152,0.24339 0.084,0.0956 0.2215,0.13013 0.2879,0.13591 0.075,0.006 0.1492,0.0238 0.2738,-0.0351 0.062,-0.0295 0.1254,-0.0906 0.1582,-0.14883 0.011,-0.0193 0.016,-0.0357 0.023,-0.0527 0.1177,-0.0954 0.1633,-0.22488 0.1886,-0.34468 0.03,-0.14499 0.025,-0.29779 -0.02,-0.45217 v -0.003 -0.003 c -0.01,-0.0128 -0.01,-0.0264 -0.01,-0.0336 0.01,-0.0512 0.01,-0.0912 5e-4,-0.12299 -0.01,-0.0499 -0.023,-0.091 -0.048,-0.13746 v -0.002 c -0.021,-0.0395 -0.077,-0.19076 -0.1106,-0.31678 -0.016,-0.063 -0.03,-0.12276 -0.037,-0.16175 0,-0.0195 -0.01,-0.0336 -0.01,-0.0351 0.025,-0.047 0.057,-0.0762 0.042,-0.20515 -0.011,-0.0886 -0.1065,-0.22026 -0.1871,-0.25787 -0.01,-0.0188 -0.01,-0.0116 -0.015,-0.046 -0.037,-0.12451 -0.09,-0.3071 -0.1137,-0.39378 v -0.003 -0.003 c -0.026,-0.0885 -0.063,-0.23584 -0.072,-0.2837 v -0.002 -0.002 c -0.015,-0.076 -0.056,-0.27234 -0.088,-0.43718 -0.03,-0.14917 -0.057,-0.34296 -0.067,-0.42272 v -0.008 c -0.01,-0.0459 -0.01,-0.0914 -0.017,-0.13436 -0.01,-0.0365 6e-4,-0.0537 -0.029,-0.11472 -5e-4,0.002 -0.01,-0.009 -0.01,-0.015 0,-4.2e-4 -6e-4,-0.002 -6e-4,-0.002 v -5.2e-4 c -5e-4,-0.0143 -0.01,-0.038 -0.014,-0.0677 -0.011,-0.0615 -0.026,-0.14668 -0.04,-0.23513 -0.028,-0.1769 -0.054,-0.38451 -0.057,-0.43874 -4e-4,-0.0415 -0.01,-0.0837 -0.016,-0.1266 -0.01,-0.044 -0.01,-0.0789 -0.049,-0.15865 l 0.01,0.0181 c 0.022,0.0491 0.01,0.0289 0.01,0.0145 0,-0.0145 -0.01,-0.0391 -0.013,-0.0677 -0.01,-0.057 -0.019,-0.13373 -0.025,-0.20929 v -0.002 c -0.041,-0.40826 -0.085,-0.75856 -0.1353,-1.03714 v -0.002 c -0.031,-0.16776 -0.068,-0.49068 -0.097,-0.84439 v -0.005 c -0.01,-0.0785 -0.02,-0.18371 -0.035,-0.27337 -0.01,-0.0582 -0.029,-0.2045 -0.042,-0.30747 v -0.008 c -0.01,-0.0546 -0.012,-0.10934 -0.02,-0.15658 0,-0.0248 -0.01,-0.0474 -0.013,-0.0708 0,-0.005 -0.01,-0.0173 -0.01,-0.0222 -0.01,-0.0301 -0.01,-0.0428 -0.01,-0.046 v -0.0227 c 0.01,-0.14671 -0.02,-0.24693 -0.043,-0.37103 v -0.002 c -0.011,-0.0565 -0.011,-0.0653 -0.017,-0.10904 0.015,-0.0111 0.038,-0.0174 0.059,-0.0315 0.075,-0.0497 0.1699,-0.1155 0.2832,-0.19689 0.2269,-0.16278 0.5279,-0.38587 0.8739,-0.65009 0.06,-0.0455 0.1193,-0.0896 0.1664,-0.12299 0.047,-0.0334 0.1173,-0.0703 0.061,-0.0434 v -0.002 c 0.09,-0.0431 0.096,-0.0558 0.1602,-0.0992 0.064,-0.0433 0.1412,-0.0977 0.2206,-0.15503 0.1516,-0.10907 0.3241,-0.2303 0.3602,-0.25425 0.039,-0.0251 0.09,-0.073 0.1395,-0.14418 0.01,-0.002 0.015,-6.1e-4 0.02,-0.003 0.1451,-0.0477 0.1937,-0.10171 0.2733,-0.16329 0.04,-0.0308 0.076,-0.0621 0.1106,-0.0946 0.017,-0.0163 0.034,-0.0319 0.052,-0.0543 0,-0.002 0.01,-0.0136 0.01,-0.016 0.084,-0.0283 0.1536,-0.0495 0.2305,-0.14418 0.012,-0.0141 0.023,-0.0265 0.045,-0.061 0,-0.002 0.01,-0.0118 0.01,-0.0145 l 0.2512,-0.15503 c 0.01,-0.003 0.026,-2.9e-4 0.034,-0.003 0.051,-0.0183 0.098,-0.0413 0.1457,-0.0739 v -0.002 c 0.029,-0.0189 0.067,-0.0649 0.1044,-0.10387 0.021,-0.009 0.031,-0.0189 0.047,-0.0274 l 0.051,-0.0109 0.01,-0.0207 c 0.013,-0.01 0.034,-0.018 0.05,-0.0289 v 0.002 c 0.041,-0.0299 0.074,-0.0593 0.1116,-0.10852 0.019,-0.0247 0.042,-0.0512 0.061,-0.11834 0,-0.007 -2e-4,-0.0222 0,-0.0305 0.01,-0.0104 0.026,-0.0131 0.035,-0.0243 v -0.002 -0.002 c 0,-0.002 0.011,-0.0115 0.012,-0.0119 10e-5,-1.4e-4 -0.039,0.01 -0.05,0.016 v -0.0207 c 0.072,-0.0142 0.1307,-0.0335 0.1809,-0.0755 0.1305,-0.0224 0.2745,-0.10317 0.357,-0.19689 0.01,-0.004 0.011,-0.01 0.015,-0.0145 0.071,-0.0153 0.1073,-0.0434 0.1463,-0.0698 0.05,-0.0337 0.094,-0.073 0.1359,-0.12506 0.01,-0.005 0.01,-0.009 0.012,-0.0129 0.047,-0.0214 0.083,-0.0501 0.1111,-0.0827 0.017,-0.0198 0.032,-0.0431 0.044,-0.0672 -0.01,0.003 -0.012,7.2e-4 -0.011,-5.2e-4 0,-0.002 0.012,-0.009 0.017,-0.0129 0.01,-0.0117 0.011,-0.0237 0.015,-0.0362 0,0.009 0,0.0246 -0.01,0.03 0.01,-0.007 0.012,-0.01 0.021,-0.016 0.018,-0.0122 0.036,-0.0219 0.049,-0.0284 -0.011,8.2e-4 -0.025,0.002 -0.052,0 0.022,0.002 0.036,-6.5e-4 0.054,-10e-4 0,-8.2e-4 0.01,-0.003 0.01,-0.004 0.01,-0.003 0.013,9.6e-4 0,0.004 0.1121,-0.003 0.1374,-0.0381 0.1845,-0.063 0.028,-0.0147 0.055,-0.0354 0.082,-0.0532 0.03,0.006 0.064,0.0142 0.085,0.0134 l 0.01,-0.002 h 0.01 c 0.069,-0.005 0.1269,-0.0246 0.1845,-0.0672 0.031,-0.023 0.045,-0.0926 0.072,-0.14108 0.026,-0.0182 0.075,-0.0241 0.1023,-0.0434 0.079,-0.0553 0.1507,-0.0977 0.2186,-0.21342 0.01,-0.006 0.02,-0.0134 0.036,-0.0212 0.039,-0.0197 0.1191,-0.0132 0.021,-0.0227 0.1664,0.0165 0.203,-0.0417 0.2465,-0.0801 0,10e-6 5e-4,0.005 0.01,0.005 l 0.01,-0.002 h 0.01 c 0.1383,-0.0113 0.1463,-0.0471 0.1747,-0.0687 0.025,-0.0187 0.043,-0.0384 0.062,-0.061 0.024,-0.0257 0.051,-0.0578 0.07,-0.11679 2e-4,-4e-4 -1e-4,-8.9e-4 0,-0.002 0.025,-0.0129 0.071,-0.0199 0.093,-0.0331 0.052,-0.031 0.099,-0.0655 0.1442,-0.10284 0.045,-0.0373 0.087,-0.076 0.1266,-0.11989 0.013,-0.0148 0.025,-0.0593 0.04,-0.0739 0.025,-0.01 0.044,5.5e-4 0.07,-0.0171 0.06,-0.0401 0.07,-0.0961 0.098,-0.14934 0.086,-0.0279 0.1304,-0.058 0.1907,-0.0946 0.061,-0.0372 0.1242,-0.0793 0.1834,-0.12144 0.059,-0.0422 0.1124,-0.081 0.1592,-0.12299 0.023,-0.021 0.043,-0.0289 0.085,-0.0977 0.011,-0.0172 0.023,-0.039 0.035,-0.0816 0.01,-0.0213 0.013,-0.0826 0.013,-0.0832 0,-5.9e-4 -0.027,-0.12303 -0.027,-0.1235 -2e-4,-4.6e-4 -0.086,-0.11283 -0.086,-0.11317 -4e-4,-3.3e-4 -0.098,-0.051 -0.099,-0.0512 -6e-4,-2.1e-4 -0.052,-0.0131 -0.07,-0.0145 -0.018,-0.002 -0.033,-8.2e-4 -0.045,0 z m -18.8066,18.75234 v -5.2e-4 0 c 5e-4,2.7e-4 5e-4,2.7e-4 0,5.2e-4 z m -10.7146,5.00331 c -4e-4,-0.008 0,-0.0207 0,-0.0305 -0.01,-0.006 -0.014,-0.0124 -0.021,-0.017 l 5e-4,0.0295 c 0,0.005 0.01,0.013 0.016,0.016 0,10e-4 0,9e-4 0,0.002 z m 0.6212,-10.73319 c 2e-4,-0.002 3e-4,-0.003 5e-4,-0.005 0,-0.006 -0.01,-0.0126 -0.01,-0.0186 0,0.003 0,0.007 0,0.01 0,0.005 0.01,0.009 0.01,0.014 z m 19.3187,-7.80314 c -0.01,-7.2e-4 5e-4,0.008 5e-4,0.0145 -10e-5,-0.003 -5e-4,-0.008 -5e-4,-0.01 z m 9.1793,-4.40645 v 5.1e-4 c 0,0.0139 -0.029,0.0652 -0.056,0.0894 -0.014,0.0121 -0.01,0.007 -0.01,0.008 0.017,-0.0348 0.057,-0.07 0.064,-0.0982 z m -24.2389,0.0455 c -0.013,0.004 -0.013,0.007 -0.01,0.006 0,-8.2e-4 0.01,-0.004 0.01,-0.006 z m 24.0657,0.10387 c -0.01,0.0131 -4e-4,0.0222 -0.013,0.0403 0,0.002 -0.01,0.003 -0.01,0.005 0.01,-0.0174 0.016,-0.018 0.022,-0.0444 z m -0.4361,0.39533 -0.01,0.007 c -0.012,0.0196 -0.021,0.007 -0.03,0.0191 3e-4,-0.002 -3e-4,-0.003 0,-0.005 0.01,-0.0139 0.025,-0.004 0.035,-0.0207 z m -1.5673,0.0362 c -0.01,0.004 -0.01,0.007 -0.013,0.015 l 0.01,-0.0129 c 0,-10e-4 0,-0.002 0,-0.002 z m 1.4428,0.0444 v 0.005 c -0.01,7.4e-4 -0.01,0.0135 -0.022,0.0145 0.011,-7.8e-4 0.01,-0.005 0.017,-0.007 -0.022,0.0339 -0.033,0.0924 -0.052,0.10697 -0.031,0.0227 -0.063,0.0293 -0.096,0.0357 0.018,-0.0193 0.038,-0.038 0.055,-0.0599 -0.012,0.007 -0.034,0.013 -0.082,0.0181 l -0.01,0.002 c 0.085,-0.007 0.133,-0.0718 0.1902,-0.11524 z m -0.087,0.0811 c 0,0.005 -0.01,0.009 -0.012,0.0134 0.012,-0.007 0.012,-0.0122 0.012,-0.0134 z m -0.7079,0.39998 v 0.0465 c 0,-0.008 -0.01,-0.0237 -0.01,-0.0326 5e-4,-0.007 0.01,-0.007 0.01,-0.014 z m -0.089,0.13126 c -0.013,0.0279 -0.025,0.0516 -0.035,0.0636 -4e-4,3.6e-4 0,0.002 0,0.002 -0.01,0.01 -0.015,0.0162 -0.025,0.0243 -0.013,0.01 0.01,0.037 -0.1343,0.0496 l -0.017,0.002 c -0.01,3.1e-4 -0.013,-0.0135 -0.022,-0.0145 0.02,-0.0149 0.043,-0.0309 0.061,-0.0403 0.02,-0.011 0.059,-0.007 -0.027,0 h -0.01 c 0.1173,-0.008 0.153,-0.0511 0.2082,-0.0863 z m -0.5695,0.2005 v 0.0243 c 0,0.0165 -0.01,0.0233 -0.01,0.0362 0,-0.0193 0.01,-0.0392 0.01,-0.0605 z m -0.032,0.13953 h 0.01 c 0,10e-4 0,0.003 -0.01,0.004 6e-4,-10e-4 8e-4,-0.002 0,-0.004 z m -1.7276,0.14676 h 0.01 c -0.024,0.002 -0.039,0.004 -0.049,0.008 0.01,-0.003 0.018,-0.006 0.042,-0.008 z m 1.2821,0.22117 c 0,-6.3e-4 0,2.6e-4 0,0 0,8.2e-4 -4e-4,0.004 -0.013,0.007 0,-0.002 0.01,-0.005 0.01,-0.007 z m -1.7151,0.008 c 0,10e-4 -0.01,10e-4 -0.01,0.002 v 0 c 0,0 0,-10e-4 0.01,-0.002 z m 0.801,0.53588 -0.01,0.006 c 1e-4,-8.2e-4 -2e-4,-0.002 0,-0.003 0,-7.2e-4 -10e-5,-0.002 0.01,-0.003 z m -1.0935,0.68161 h 0.01 v 0.002 h -0.01 z m 0.1839,0.0486 v 0.004 c -0.016,0.01 -0.017,0.009 -0.02,0.01 0.01,-0.002 0.013,-0.01 0.02,-0.014 z m -0.7255,0.26458 c 0.04,0.019 0.081,0.0259 0.1142,0.031 -0.01,-7e-5 -0.01,0.002 -0.011,0.002 -0.024,-0.002 -0.062,-0.0103 -0.1034,-0.0331 z m -2.0304,1.38906 c 0.055,0.0992 0.038,0.16437 0.023,0.20464 0.02,-0.0713 -3e-4,-0.14047 -0.023,-0.20464 z m -0.1374,0.43099 v 0 l -0.012,0.003 c 0,-8.2e-4 10e-5,-0.002 0.01,-0.003 z m -10.3389,0.002 h 0.01 c 0,0.005 3e-4,0.0102 -0.01,0.015 v -0.0134 c 2e-4,-7.4e-4 0,-3.7e-4 0,-0.002 z m -10.4066,0.54312 h 0.01 c -0.059,0.26811 -0.1143,0.71272 -0.171,1.28313 -0.06,0.60031 -0.1145,1.29135 -0.1427,1.8805 v 0.002 c -0.016,0.34553 -0.051,0.93652 -0.075,1.30587 -0.017,0.22712 -0.026,0.38841 -0.029,0.51366 -0.054,0.002 -0.058,0.006 -0.136,0.007 -0.4744,0.007 -1.6509,0.13227 -2.1688,0.22841 -0.1766,0.0328 -0.4262,0.0745 -0.5359,0.0899 -0.2259,0.0316 -0.7704,0.12108 -1.2878,0.21239 -0.3537,0.0623 -0.834,0.10994 -1.2133,0.12661 -0.057,0.002 -0.086,5.6e-4 -0.1375,0.002 0.033,-0.0457 0.066,-0.0956 0.094,-0.13281 0.045,-0.0604 0.096,-0.11798 0.072,-0.0946 v -0.003 c 0.049,-0.0479 0.041,-0.0456 0.059,-0.0687 0.019,-0.0242 0.043,-0.0561 0.07,-0.0925 0.055,-0.0729 0.1244,-0.16771 0.1979,-0.26872 0.1445,-0.19794 0.3238,-0.44094 0.3938,-0.5333 v -0.002 c 0.074,-0.0965 0.1741,-0.22828 0.2258,-0.29765 0.043,-0.0562 0.1235,-0.15267 0.1504,-0.18035 0.032,-0.0326 0.06,-0.0642 0.086,-0.0992 0.013,-0.0175 0.025,-0.0356 0.04,-0.061 0.01,-0.0143 0.021,-0.0265 0.031,-0.0553 0,0.009 -0.01,0.008 -0.01,0.009 0,-0.002 0.01,-0.007 0.01,-0.0109 0.01,-0.0124 0.021,-0.0269 0.034,-0.0424 v -0.002 c 0.1505,-0.17199 0.2919,-0.34627 0.5405,-0.66404 0.061,-0.0783 0.1235,-0.1539 0.1716,-0.2098 0.024,-0.0279 0.044,-0.0514 0.057,-0.0656 0.01,-0.0106 0.01,-0.005 -0.01,0.005 0.034,-0.0231 0.062,-0.0468 0.093,-0.0801 0.022,-0.0244 0.062,-0.039 0.083,-0.11369 0.027,-0.0307 0.065,-0.0721 0.109,-0.11524 0.1104,-0.11045 0.2226,-0.23272 0.2961,-0.3359 0.03,-0.0419 0.1172,-0.12705 0.086,-0.10283 0.048,-0.0372 0.076,-0.0654 0.1246,-0.11214 0.05,-0.0476 0.1082,-0.10528 0.1648,-0.16278 0.4379,-0.44482 0.9109,-0.84108 1.3302,-1.12965 0.4193,-0.28856 0.8055,-0.4606 0.9601,-0.48007 0.1305,-0.0165 0.2495,-0.0486 0.3556,-0.0997 0.025,-0.0124 0.05,-0.0338 0.075,-0.0496 z m 4.5336,1.46865 c 0.014,0.11574 0.028,0.23825 0.038,0.33124 0.015,0.13329 0.023,0.20607 0.034,0.27389 2e-4,0.002 0,0.004 0,0.007 0.01,0.0898 0.025,0.17104 0.043,0.23564 v 0.005 0.005 c -0.01,-0.0176 0.01,0.039 0.02,0.0997 0.011,0.0606 0.025,0.1396 0.039,0.22376 0.028,0.16831 0.057,0.36121 0.07,0.48318 v -0.003 c 0.012,0.12247 0.046,0.28268 0.074,0.41444 v 0.002 0.002 c 0.025,0.1127 0.065,0.33735 0.085,0.4718 0.052,0.37041 0.095,0.60701 0.152,0.81959 0.021,0.0853 0.052,0.22581 0.061,0.28164 v 0.003 0.003 c 0.013,0.0718 0.032,0.19883 0.045,0.27699 v 0.002 0.002 c 0.016,0.0975 0.052,0.25184 0.085,0.37776 v 0.002 c 0.029,0.11024 0.067,0.28204 0.085,0.36639 v 0.0129 c -0.2943,-0.35104 -0.6767,-0.64316 -1.2402,-0.81649 -0.3555,-0.10923 -0.9465,-0.23223 -1.2785,-0.262 -0.1218,-0.0109 -0.2303,-0.0235 -0.3219,-0.0357 3e-4,-0.1517 -0.01,-0.29453 -0.053,-0.73432 v -0.002 c -0.012,-0.12219 -0.06,-0.4807 -0.109,-0.84025 v -0.002 c -0.025,-0.1753 -0.046,-0.34385 -0.061,-0.47387 0.1228,0.11382 0.2638,0.25683 0.3861,0.40669 0.1267,0.15543 0.2051,0.25063 0.2893,0.32814 0.084,0.0775 0.2169,0.14274 0.3184,0.15193 0.1146,0.0103 0.1796,0.0201 0.3266,-0.0481 v 0.002 c -0.01,0.002 -0.01,0.003 -0.01,0.004 -7e-4,-1.6e-4 0,-4.1e-4 0,-5.2e-4 h -6e-4 c -0.019,0.0108 0.01,0.005 0,0.002 0.055,0.006 0.1042,0.006 0.1586,-0.007 0.057,-0.0124 0.1286,-0.0248 0.2103,-0.12195 -0.065,0.0772 -0.039,0.036 -0.021,0.0258 0.017,-0.01 0.044,-0.0249 0.069,-0.0357 0.1134,-0.0499 0.2684,-0.18455 0.3266,-0.339 0.058,-0.15444 0.078,-0.31725 0.1116,-0.59169 v -0.005 -0.003 c 0.018,-0.17688 0.028,-0.28166 0.025,-0.38034 0,-0.0484 -0.01,-0.0984 -0.027,-0.16175 0.018,-0.0399 0.049,-0.0662 0.054,-0.10283 0.015,-0.10426 0.011,-0.20351 0.01,-0.37931 v -0.003 -0.003 c -0.01,-0.0812 0,-0.16882 0,-0.26717 z m -0.1825,0.57877 0.01,5.2e-4 c 0,8.2e-4 0.01,0.004 0.011,0.014 v 0.0103 c -0.01,-0.006 -0.01,-0.0177 -0.016,-0.0227 z m 7.9241,0.69247 0.01,0.004 c -4e-4,-3.8e-4 0.021,0.0292 0.027,0.0398 -0.01,-0.0144 -0.029,-0.0394 -0.033,-0.0439 z m -17.7271,0.67902 c 0,0.009 -0.01,0.002 -0.01,0.0124 v 0.0165 c 0,-0.0112 0.01,-0.0167 0.01,-0.0289 z m 20.8602,0.21343 0.01,0.0222 c 6e-4,0.009 -0.018,0.0125 -0.019,0.0222 0,-0.0221 0.011,-0.0255 0.012,-0.0444 z m -0.3798,0.15916 c 0.039,0.0578 0.044,0.10445 0.044,0.13849 l -0.011,0.0538 c 0,-0.0587 -0.02,-0.12077 -0.046,-0.17829 0.01,-0.005 0.01,-0.009 0.013,-0.014 z m -5.9764,0.56431 v 0 l 0.022,0.0124 c 0.01,0.003 0.01,0.006 0.012,0.009 -0.012,-0.007 -0.021,-0.0142 -0.037,-0.0217 z m 0.099,0.0667 c 0.022,0.0236 0.025,0.0401 0.031,0.0512 v 0.003 c -0.01,-0.0163 -0.014,-0.0341 -0.031,-0.0543 z m 0.041,0.0755 c 0,0.003 0.01,0.008 0.01,0.0114 0,0.007 -6e-4,0.0134 0,0.0191 0,-0.0118 -0.01,-0.0193 -0.01,-0.0305 z m 3.8013,0.093 c 0,0.0197 -0.01,0.0397 -0.01,0.0398 v -0.0258 c 0,-0.0151 6e-4,-0.002 0.01,-0.014 z m 0.5963,0.82579 c -0.01,0.0225 -0.019,0.0371 -0.035,0.0527 -0.01,0.004 -0.027,0.009 -0.034,0.0145 0.018,-0.0285 0.052,-0.0254 0.069,-0.0672 z m -0.1617,0.10232 v 0 c -0.01,0.002 -0.01,0.006 -0.015,0.007 h -0.01 c 0.01,-4.8e-4 0.014,-0.006 0.021,-0.007 z m -12.6891,0.46767 c 0.057,6.8e-4 0.1081,0.002 0.172,0.003 0.1173,0.003 0.2388,0.008 0.3333,0.0124 0.01,4.8e-4 0.01,8.8e-4 0.014,0.002 3e-4,0.002 -2e-4,9.2e-4 0,0.003 v 0.002 c 0.029,0.28314 0.07,0.55665 0.1101,0.76016 0.02,0.10176 0.039,0.18315 0.062,0.2558 0.012,0.0363 0.012,0.0628 0.066,0.13436 0.01,0.008 0.021,0.0188 0.03,0.0284 0,0.13773 -0.01,0.26407 0.03,0.46147 0.021,0.10217 0.041,0.20497 0.052,0.28164 0.01,0.0385 0.01,0.0701 0.011,0.0889 v 0.007 c -0.011,0.1055 -0.01,0.17444 0.03,0.28009 -0.01,-0.0158 0.01,0.0547 0.021,0.11678 0.01,0.075 0.018,0.1709 0.024,0.26717 v 0.002 0.002 c 0.015,0.20374 0.033,0.4594 0.045,0.58394 0.01,0.10809 0.018,0.27699 0.03,0.39068 0.014,0.20262 0.03,0.3682 0.048,0.49144 0.01,0.0632 0.018,0.11541 0.03,0.16485 0.012,0.0495 -0.021,0.0794 0.106,0.20309 v 0.002 c 0.118,0.11397 0.172,0.0934 0.2237,0.10077 0.052,0.007 0.098,0.008 0.1457,0.007 0.048,-0.002 0.093,-0.005 0.1442,-0.0155 0.016,-0.003 0.049,-0.0359 0.067,-0.0388 -0.01,3.9e-4 -0.012,0.002 -0.021,0.002 0.017,0.002 0.018,-0.009 0.034,-0.008 0.029,-0.006 0.054,-10e-4 0.093,-0.0315 -0.019,0.0161 -0.035,0.0256 -0.046,0.0279 0.1056,6e-4 0.1796,-0.0178 0.2615,-0.062 l 0.01,-0.002 v -0.003 c 0.045,-0.0259 0.1419,-0.0793 0.198,-0.19533 0.054,-0.11301 0.045,-0.20096 0.039,-0.28681 0,-0.2376 -0.031,-0.46736 -0.085,-0.69401 v -0.002 c -0.036,-0.15199 -0.06,-0.3148 -0.1421,-1.01906 v -0.002 c -0.021,-0.17776 -0.036,-0.33827 -0.074,-0.48008 0,-0.0149 -0.01,-0.10188 -0.022,-0.18603 0,-0.0872 -0.01,-0.19721 -0.014,-0.30076 -0.01,-0.10675 -0.01,-0.18401 -0.022,-0.26252 v -0.002 c 0,-0.0114 -0.024,-0.0294 -0.027,-0.0429 0,-0.005 0.01,-0.0101 0.01,-0.0145 0.01,-0.0838 -5e-4,-0.14977 -0.01,-0.23565 v -0.002 c -0.011,-0.11092 -0.034,-0.34739 -0.047,-0.52245 0,-0.0456 -0.01,-0.0822 -0.014,-0.12454 0.038,0.004 0.069,0.0212 0.1168,0.0176 -0.042,0.002 0.035,0.004 0.1127,0.0181 0.077,0.0138 0.1768,0.0337 0.2831,0.0589 0.2126,0.0504 0.4543,0.1187 0.5954,0.1695 0.4662,0.16766 0.7323,0.45531 0.7994,0.76533 0.093,0.42644 0.044,1.14658 -0.1375,1.7203 -0.029,0.0918 -0.054,0.17864 -0.072,0.2434 -0.01,0.0328 -0.016,0.0599 -0.021,0.078 l -0.017,0.0398 -0.01,0.0496 c 0.01,-0.0662 0,-0.0186 -0.01,0.007 -0.01,0.0255 -0.022,0.0602 -0.035,0.091 v 0.002 c -0.036,0.0865 -0.1,0.24524 -0.1457,0.36329 -0.021,0.0547 -0.043,0.1081 -0.061,0.14728 -0.01,0.0179 -0.014,0.0316 -0.019,0.0408 -0.051,0.0668 -0.075,0.12321 -0.1039,0.18449 -0.032,0.0694 -0.056,0.11481 -0.074,0.21084 0,-0.0165 2e-4,-0.002 -0.01,0.015 -0.011,0.0224 -0.026,0.052 -0.04,0.0739 v 0.003 0.002 c -0.057,0.0941 -0.1079,0.19174 -0.1437,0.29921 v 0.002 0.002 c 7e-4,-0.002 -0.058,0.12487 -0.095,0.17932 v 0.002 c -0.064,0.0988 -0.1615,0.26885 -0.2372,0.40979 v 0.002 c -0.065,0.12141 -0.1747,0.30129 -0.2139,0.35657 -0.077,0.10819 -0.1163,0.18786 -0.1457,0.26768 l -0.013,0.0331 v 0.0202 c -0.01,0.009 -0.019,0.0625 -0.035,0.0987 -0.011,0.0256 -0.024,0.0498 -0.032,0.0636 -0.01,0.0104 4e-4,-7.2e-4 0.021,-0.0191 -0.106,0.096 -0.084,0.11436 -0.083,0.13901 0,0.002 -0.012,0.004 -0.015,0.007 -0.029,0.0273 -0.047,0.0491 -0.062,0.0718 -0.032,0.0453 -0.057,0.0915 -0.079,0.14572 -0.011,0.0249 -0.023,0.0505 -0.032,0.0682 -0.01,0.0188 -0.045,0.0492 0.015,-0.0124 -0.062,0.0632 -0.061,0.0788 -0.08,0.11059 -0.02,0.0328 -0.038,0.0673 -0.056,0.10232 v 0.003 0.003 c -0.023,0.047 -0.077,0.14095 -0.098,0.17363 -0.064,0.10001 -0.1261,0.21178 -0.3581,0.65267 -0.061,0.11705 -0.1612,0.29062 -0.1984,0.34572 v 0.002 c -0.073,0.10988 -0.1114,0.20345 -0.1297,0.25115 l -0.016,0.0403 v 0.009 c -0.033,0.0466 -0.073,0.10449 -0.1132,0.17415 -0.03,0.0519 -0.086,0.13389 -0.09,0.13953 v 0.002 0.003 c -0.018,0.0251 -0.032,0.0494 -0.048,0.0801 -0.01,0.0207 -0.027,0.0331 -0.038,0.078 0,-0.0106 0.01,-0.0104 0.01,-0.0114 6e-4,-0.002 2e-4,0.005 -0.01,0.0114 -8e-4,0.003 0,0.005 0,0.009 -0.01,0.0187 -0.027,0.047 -0.048,0.0796 -0.042,0.0683 -0.096,0.15426 -0.1405,0.21601 v 0.002 c -0.021,0.0302 -0.039,0.0588 -0.057,0.091 -0.01,0.0161 -0.019,0.0337 -0.029,0.0563 v 0.0176 c 0,0.004 -0.01,0.0101 -0.01,0.0145 7e-4,-0.002 0,-0.004 0,-0.005 0,0.003 -1e-4,0.004 -0.01,0.01 -0.013,0.0222 -0.035,0.0548 -0.059,0.091 -0.048,0.0723 -0.1106,0.1599 -0.1343,0.18862 -0.052,0.064 -0.095,0.13159 -0.1328,0.19378 -0.019,0.0311 -0.035,0.0594 -0.049,0.0863 -0.01,0.007 -0.01,0.0165 -0.011,0.0258 0.01,-0.007 0.01,-0.011 0.02,-0.0176 -0.015,0.01 -0.015,0.0166 -0.025,0.0253 -10e-5,3.4e-4 0,8.4e-4 0,0.001 0,0.004 -4e-4,0.009 -0.01,0.0124 -0.036,0.0318 -0.072,0.0643 -0.094,0.0946 -0.032,0.0432 -0.059,0.0879 -0.083,0.14107 v 0.002 0.002 c 0,0.006 -5e-4,0.007 -0.01,0.0134 -0.022,0.0188 -0.039,0.0338 -0.053,0.0496 -0.03,0.0317 -0.057,0.0652 -0.085,0.10335 -0.024,0.0329 -0.3222,0.3448 -0.4894,0.49661 -0.046,-0.0718 -0.1429,-0.23077 -0.1886,-0.49816 v -0.002 c -0.017,-0.10203 -0.034,-0.19968 -0.048,-0.27698 -0.01,-0.0388 -0.013,-0.0736 -0.02,-0.10232 0,-0.0144 -0.01,-0.0268 -0.01,-0.0413 -7e-4,-0.003 -0.01,-0.009 -0.01,-0.0129 -2e-4,-0.002 0,-0.004 0,-0.007 0,-0.0171 -0.01,-0.0476 -0.012,-0.0754 0,-0.0619 -0.012,-0.19023 -0.022,-0.32143 -0.01,-0.0892 0.015,-0.59853 0.052,-1.03714 0.019,-0.2193 0.04,-0.43091 0.061,-0.5886 0.01,-0.0788 0.021,-0.14435 0.029,-0.18603 0,-0.0182 0.01,-0.0285 0.01,-0.0336 3e-4,-7.6e-4 0,-0.004 0,-0.005 0.01,-0.0143 0.016,-0.0258 0.027,-0.0543 0.01,-0.0207 0.02,-0.0444 0.025,-0.0925 0.01,-0.0252 0.01,-0.0647 0,-0.10956 v -5.1e-4 c -10e-5,-0.003 -10e-5,-10e-4 0,-0.007 v -5.2e-4 c -0.01,-0.0388 -0.026,-0.0812 -0.062,-0.12454 l 0.015,0.0207 c 0.031,0.0467 0.042,0.0711 0.047,0.0873 3e-4,-0.0234 4e-4,-0.0546 0.01,-0.0904 0.01,-0.088 0.029,-0.19826 0.04,-0.2403 v -0.002 c 0.024,-0.0888 0.053,-0.23438 0.066,-0.38241 v 0.01 c 0.01,-0.0412 0.011,-0.0626 0.015,-0.0842 0.068,-0.0678 0.075,-0.1376 0.087,-0.18449 0.016,-0.0634 0.021,-0.12019 0.027,-0.18448 v -0.007 -0.008 c 0,-0.035 0.01,-0.0769 0.011,-0.10593 0.01,-0.029 0.03,-0.0673 -0.01,0.002 0.01,-0.0125 0.012,-0.0237 0.02,-0.0413 0.01,-0.009 0.01,-0.0191 0.017,-0.045 0.01,-0.0129 0.014,-0.0635 0.015,-0.0641 v -0.0574 c 0,-0.0111 0.01,-0.0221 0.013,-0.0336 0.024,-0.0835 0.047,-0.18469 0.07,-0.31057 0.046,-0.2514 0.095,-0.59848 0.1437,-1.02578 v -0.002 c 0.028,-0.22957 0.052,-0.45369 0.069,-0.62941 0.017,-0.17617 0.03,-0.31978 0.032,-0.33073 v -0.0119 -0.0109 c 0,-0.008 0,-0.0137 0,-0.0196 -0.01,0.008 -0.021,0.0171 -0.025,0.0238 0.01,-0.009 0.017,-0.0178 0.025,-0.0269 -3e-4,8.7e-4 -2e-4,0.002 -5e-4,0.003 0,-0.003 0.01,-0.008 0.01,-0.009 2e-4,-0.003 10e-5,-0.003 0,-0.004 0,0.003 -0.01,0.006 -0.01,0.009 0,-0.006 0,-0.0116 0,-0.015 0.017,-0.0196 0.034,-0.0394 0.043,-0.0625 0.025,-0.062 0.043,-0.15018 0.01,-0.25425 l 0.01,0.0351 c 0.012,0.0614 0.01,0.0443 0.01,0.0429 0,-0.002 -2e-4,-0.008 0,-0.0176 6e-4,-0.0194 7e-4,-0.0503 0.01,-0.0894 0,-0.0783 0.01,-0.19087 0.017,-0.32659 0.016,-0.27143 0.043,-0.63868 0.071,-1.0356 0.059,-0.7995 0.092,-1.27134 0.107,-1.55391 0,-0.0674 5e-4,-0.0969 0.01,-0.14521 z m -0.2879,3.41529 c 0,-10e-4 0,-0.002 0,-0.003 v -5.2e-4 c 0,10e-4 0,0.003 0,0.004 z m -0.7911,-3.3755 c -0.01,0.006 -0.01,0.008 -0.012,0.0124 2e-4,-1.3e-4 0,-0.002 0,-0.002 z m 0.051,0.41858 v 0 c 0.011,0.007 0.02,0.0131 0.034,0.0196 l -0.027,-0.0145 c 0,-8.2e-4 -0.01,-0.004 -0.01,-0.005 z m 21.224,0.262 v 0.0362 c 0.012,0.0334 0.022,0.0483 0.03,0.0584 -0.013,-0.0284 -0.012,-0.0657 -0.03,-0.0946 z m -19.3538,0.0351 c -0.029,0.0297 -0.064,0.0599 -0.085,0.0868 0.011,-0.02 0.026,-0.0447 0.062,-0.0744 0.01,-0.005 0.015,-0.007 0.023,-0.0124 z m 19.3838,0.0599 c 8e-4,0.002 0,0.002 0,0.004 z m -18.5461,5.2e-4 c -3e-4,-7e-5 0.075,0.026 0.075,0.0258 -10e-5,-10e-6 0.01,0.006 0.01,0.007 -0.029,-0.007 -0.057,-0.0129 -0.086,-0.0181 -2e-4,-0.002 -4e-4,-0.002 -5e-4,-0.004 -3e-4,-0.002 -7e-4,-0.008 0,-0.0103 z m 18.5539,0.009 c 0.01,0.006 0.01,0.0119 0.014,0.0165 v -0.003 c 0,-0.002 1e-4,-0.003 -0.014,-0.0134 z m -18.3209,0.35399 v 0.002 c 1e-4,-3e-4 -0.01,0.0304 -0.015,0.0413 -0.01,0.0178 -0.013,0.027 -0.018,0.0357 0.012,-0.024 0.02,-0.0523 0.033,-0.0791 z m 18.896,0.49971 v 0.009 c 0,0.008 -0.01,0.0154 -0.01,0.0248 v -0.0129 c 10e-5,-0.002 -2e-4,-0.009 0.01,-0.0212 z m 0.6579,0.11524 c 0,0.0359 -0.01,0.0582 -0.022,0.077 0.011,-0.0292 0.018,-0.0553 0.022,-0.077 z m -16.3763,0.17983 v 5.2e-4 c 0.01,0.009 0.01,0.0161 0.017,0.0258 l -0.01,-0.008 c -0.015,-0.0136 9e-4,-0.003 -0.01,-0.0124 2e-4,-0.002 0,-0.003 0,-0.005 z m 14.209,0.94981 h 5e-4 c -0.01,0.0186 2e-4,0.0372 -0.01,0.0527 -0.037,0.0566 -0.076,0.0762 -0.096,0.0863 0.06,-0.0315 0.075,-0.0875 0.1055,-0.13901 z m -11.8107,1.42059 v 0.0176 c 0,-4e-5 0,0.002 0,0.003 0,-0.007 0,-0.0142 0,-0.0207 z m 5.7552,0.88832 0.01,0.0176 c 4e-4,8.2e-4 0,0.006 0,0.007 0,0.002 -6e-4,-0.0106 -0.01,-0.0238 z m -9.294,0.0114 v 0.0238 c 0,0.0234 4e-4,0.0116 -0.01,0.0222 0,-0.0206 0.01,-0.0455 0.01,-0.046 z m 9.3669,0.4222 0.013,0.005 c 0.02,0.009 0.01,0.0154 0.022,0.0238 -0.016,-0.0109 -0.01,-0.0161 -0.035,-0.0289 z m -14.0229,0.36019 v 0 l -0.025,0.0305 c -8e-4,6e-4 -0.01,0.004 -0.01,0.005 0.01,-0.0114 0.024,-0.0239 0.032,-0.0351 z m -0.122,0.0238 v 0 c -0.011,0.005 0,0.0143 -0.015,0.0191 l -0.01,0.003 c 0.022,-0.007 0.01,-0.0144 0.024,-0.0222 z m 5.1578,0.22479 c -0.01,0.005 -0.01,0.005 -0.01,0.007 0,-0.002 0.01,-0.005 0.01,-0.007 z m 9.402,0.53588 v 0 h 0.01 c -0.019,8e-4 -0.031,0.003 -0.043,0.006 0.015,-0.004 0.028,-0.005 0.033,-0.006 z m -6.2538,0.031 c 0,0.007 0.01,0.0122 0.011,0.0202 8e-4,0.002 -7e-4,0.007 0,0.009 -0.01,-0.0105 -0.01,-0.0197 -0.011,-0.0295 z m -4.3605,0.0661 c 0,0.003 0,0.005 -0.01,0.01 0,-0.003 -2e-4,-0.008 0.01,-0.01 z m 0.6671,1.03869 c -7e-4,0.008 0.015,0.048 0.014,0.0372 0.01,0.005 0.042,0.0319 -0.1054,0.11214 l -0.012,0.005 c 0.093,-0.0458 0.075,-0.10229 0.1023,-0.15348 z m -1.6453,0.59841 0.01,5.2e-4 c 0,0.001 0,0.002 -0.01,0.002 -1e-4,-7.2e-4 3e-4,-0.002 0,-0.003 z m -0.5705,0.83251 c -10e-5,0.002 -2e-4,0.005 0,0.01 -0.01,0.007 -0.015,0.0215 -0.031,0.0388 0.014,-0.0165 0.022,-0.0326 0.031,-0.0486 z m -0.5499,0.93483 c -0.012,0.006 -0.026,0.0146 -0.026,0.0145 l -0.017,0.007 c 0.017,-0.006 0.029,-0.0138 0.042,-0.0212 z m -2.9068,0.34985 c 0,0.0108 -0.021,0.0258 -0.011,0.10438 0,0.003 0.01,0.009 0.01,0.0124 0.01,-0.0365 -2e-4,-0.0927 0.01,-0.11679 z m 0.1457,0.005 c -0.017,0.0157 -0.031,0.0325 -0.043,0.0496 0,-0.006 0.01,-0.0136 0.011,-0.0176 0.011,-0.0137 0.021,-0.0227 0.032,-0.032 z m -0.081,0.13487 c -0.01,0.02 -0.01,0.0385 -0.012,0.0558 2e-4,-0.008 0.01,-0.0312 0.012,-0.0558 z m 10.5596,0.11369 c 2e-4,10e-4 0,0.002 0,0.003 0,-10e-4 -8e-4,-10e-4 0,-0.003 z m -10.4852,0.23099 c 10e-5,5.9e-4 0,0.002 0,0.003 h 5e-4 c -2e-4,-8.2e-4 -5e-4,-0.002 -5e-4,-0.003 z m 10.0738,2.51871 v 0.0258 c 0,0.007 0.01,0.0207 0.01,0.0289 0,-0.0207 -0.01,-0.0282 -0.01,-0.0548 z m 0.9969,0.87023 c -0.015,0.0147 -0.024,0.0348 -0.038,0.0424 -0.047,0.0246 -0.079,0.0264 -0.091,0.0274 0.03,-0.002 0.081,-0.0473 0.1292,-0.0698 z m -25.4507,18.19373 c -1.1182,0 -2.1004,0.19622 -2.9466,0.58911 -0.8462,0.39288 -1.5035,0.95971 -1.9719,1.70015 -0.4534,0.72533 -0.6801,1.57887 -0.6801,2.56109 0,0.99731 0.3096,1.85086 0.9291,2.56108 0.6347,0.71022 1.5111,1.26942 2.6293,1.67742 l 2.788,1.04283 c 1.5564,0.57421 2.3347,1.30728 2.3347,2.19883 0,0.37777 -0.1286,0.74786 -0.3855,1.11053 -0.2569,0.34754 -0.6193,0.63478 -1.0878,0.86144 -0.4533,0.22667 -0.9673,0.34003 -1.5415,0.34003 -1.6622,0 -3.1959,-0.89167 -4.6013,-2.67477 -0.045,-0.0604 -0.03,-0.15856 0.046,-0.29456 0.076,-0.13599 0.159,-0.24173 0.2496,-0.31729 l -0.2951,-0.31781 -3.1501,2.96933 0.2945,0.31781 c 0.1662,-0.16622 0.3172,-0.2496 0.4532,-0.2496 0.045,0 0.083,0.0153 0.1132,0.0455 1.0426,1.07288 2.1234,1.91879 3.2416,2.53834 1.1183,0.60444 2.3272,0.90692 3.6267,0.90692 1.2693,0 2.3648,-0.23436 3.2866,-0.70279 0.9369,-0.48356 1.6395,-1.11037 2.1079,-1.88103 0.4836,-0.78577 0.725,-1.6322 0.725,-2.53886 0,-0.93688 -0.1886,-1.71519 -0.5664,-2.33474 -0.3777,-0.63466 -0.8841,-1.141 -1.5187,-1.51877 -0.6347,-0.39289 -1.4277,-0.76298 -2.3797,-1.11053 l -2.743,-0.99735 c -0.5138,-0.18134 -0.8991,-0.40044 -1.156,-0.65733 -0.2418,-0.25688 -0.3628,-0.62697 -0.3628,-1.11052 0,-0.544 0.2268,-0.98984 0.6801,-1.33739 0.4533,-0.36266 1.0654,-0.54415 1.836,-0.54415 0.9672,0 1.9417,0.39297 2.9239,1.17874 0.06,0.0453 0.068,0.12108 0.023,0.22686 -0.03,0.0907 -0.083,0.17352 -0.1586,0.24908 l 0.2945,0.31729 2.8107,-2.76521 -0.2945,-0.29455 c -0.06,0.0604 -0.1433,0.12094 -0.2491,0.18138 -0.091,0.0453 -0.1741,0.0677 -0.2496,0.0677 -0.045,0 -0.075,-0.007 -0.09,-0.0222 -0.816,-0.66489 -1.5867,-1.15648 -2.312,-1.47381 -0.7103,-0.33245 -1.5943,-0.49816 -2.6521,-0.49816 z m 13.5997,0.1359 v 0.43047 c 0.136,0 0.2646,0.0305 0.3855,0.091 0.1209,0.0453 0.1814,0.13582 0.1814,0.27182 0,0.0756 -0.023,0.15841 -0.068,0.24908 l -6.3009,15.32258 c -0.06,0.136 -0.242,0.20412 -0.5442,0.20412 v 0.43046 h 4.4654 v -0.43046 c -0.136,0 -0.2494,-0.03 -0.34,-0.0904 -0.076,-0.0755 -0.1137,-0.15893 -0.1137,-0.24959 l 0.023,-0.0677 1.247,-3.19619 h 7.3892 l 1.2464,3.19619 c 0.045,0.0907 0.031,0.18115 -0.045,0.27182 -0.076,0.0907 -0.2118,0.13591 -0.4082,0.13591 v 0.43046 h 4.6013 v -0.43046 c -0.3174,0 -0.4988,-0.0681 -0.5442,-0.20412 l -6.3918,-15.32258 c -0.045,-0.0907 -0.068,-0.17353 -0.068,-0.24908 0,-0.136 0.06,-0.22649 0.1814,-0.27182 0.1208,-0.0604 0.2489,-0.091 0.3849,-0.091 v -0.43047 z m 13.1015,0 v 0.43047 c 0.1058,0 0.2116,0.0229 0.3173,0.0682 0.1209,0.0453 0.1814,0.10583 0.1814,0.18139 v 15.63987 c 0,0.0756 -0.061,0.13553 -0.1814,0.18087 -0.1057,0.0453 -0.2191,0.0682 -0.34,0.0682 v 0.43046 h 3.9894 v -0.43046 c -0.1209,0 -0.242,-0.0229 -0.3627,-0.0682 -0.1058,-0.0453 -0.1587,-0.10532 -0.1587,-0.18087 v -13.03331 l 6.6187,14.5743 6.641,-14.52935 v 12.98836 c 0,0.0756 -0.061,0.13553 -0.1814,0.18087 -0.1058,0.0453 -0.2192,0.0682 -0.3401,0.0682 v 0.43046 h 3.9667 v -0.43046 c -0.1209,0 -0.2413,-0.0229 -0.3622,-0.0682 -0.1058,-0.0453 -0.1592,-0.10532 -0.1592,-0.18087 v -15.63987 c 0,-0.0756 0.053,-0.13606 0.1592,-0.18139 0.1209,-0.0453 0.2337,-0.0682 0.3395,-0.0682 v -0.43047 h -5.9609 v 0.43047 c 0.1813,0 0.3323,0.0452 0.4532,0.13591 0.1209,0.0907 0.1661,0.18167 0.1359,0.27233 l -4.6695,10.69857 -4.6012,-10.69857 c -0.045,-0.10577 -0.045,-0.19678 0,-0.27233 0.06,-0.0907 0.1814,-0.13591 0.3627,-0.13591 v -0.43047 z m 35.1106,0 v 0.43047 c 0.1057,0 0.2186,0.0229 0.3395,0.0682 0.136,0.0453 0.2041,0.10583 0.2041,0.18139 v 15.63987 c 0,0.0756 -0.068,0.13553 -0.2041,0.18087 -0.1209,0.0453 -0.2338,0.0682 -0.3395,0.0682 v 0.43046 h 4.2612 v -0.43046 c -0.1058,0 -0.2268,-0.0229 -0.3628,-0.0682 -0.1209,-0.0453 -0.1814,-0.10532 -0.1814,-0.18087 v -6.84558 h 7.6161 v 6.84558 c 0,0.0756 -0.068,0.13553 -0.2041,0.18087 -0.1209,0.0453 -0.2343,0.0682 -0.34,0.0682 v 0.43046 h 4.2612 v -0.43046 c -0.1058,0 -0.2268,-0.0229 -0.3628,-0.0682 -0.1209,-0.0453 -0.1814,-0.10532 -0.1814,-0.18087 v -15.63987 c 0,-0.0756 0.06,-0.13606 0.1814,-0.18139 0.136,-0.0453 0.257,-0.0682 0.3628,-0.0682 v -0.43047 h -4.2612 v 0.43047 c 0.1057,0 0.2191,0.0229 0.34,0.0682 0.136,0.0453 0.2041,0.10583 0.2041,0.18139 v 5.96087 h -7.6161 v -5.96087 c 0,-0.0756 0.061,-0.13606 0.1814,-0.18139 0.136,-0.0453 0.257,-0.0682 0.3628,-0.0682 v -0.43047 z m 17.3167,0 v 0.43047 c 0.1209,0 0.2419,0.0229 0.3628,0.0682 0.1209,0.0453 0.1814,0.10583 0.1814,0.18139 v 15.63987 c 0,0.0756 -0.06,0.13553 -0.1814,0.18087 -0.1209,0.0453 -0.2419,0.0682 -0.3628,0.0682 v 0.43046 h 4.1708 v -0.43046 c -0.1209,0 -0.2418,-0.0229 -0.3627,-0.0682 -0.1209,-0.0453 -0.1814,-0.10532 -0.1814,-0.18087 v -15.63987 c 0,-0.0756 0.06,-0.13606 0.1814,-0.18139 0.1209,-0.0453 0.2418,-0.0682 0.3627,-0.0682 v -0.43047 z m 6.4374,0 v 0.43047 c 0.1057,0 0.2191,0.0229 0.34,0.0682 0.1209,0.0453 0.1814,0.10583 0.1814,0.18139 v 15.63987 c 0,0.0756 -0.06,0.13553 -0.1814,0.18087 -0.1058,0.0453 -0.2115,0.0682 -0.3173,0.0682 v 0.43046 h 10.7668 c 0.076,0 0.136,0.0529 0.1814,0.15865 0.045,0.12089 0.068,0.22714 0.068,0.31781 h 0.4309 v -3.7176 h -0.4309 c 0,0.0907 -0.022,0.1964 -0.068,0.31729 -0.045,0.10578 -0.1059,0.15865 -0.1814,0.15865 h -7.2306 v -13.55421 c 0,-0.0756 0.06,-0.13606 0.1814,-0.18139 0.1209,-0.0453 0.2343,-0.0682 0.34,-0.0682 v -0.43047 z m 13.2829,0 v 0.43047 c 0.1057,0 0.2191,0.0229 0.34,0.0682 0.1209,0.0453 0.1809,0.10583 0.1809,0.18139 v 15.63987 c 0,0.0756 -0.06,0.13553 -0.1809,0.18087 -0.1058,0.0453 -0.2115,0.0682 -0.3173,0.0682 v 0.43046 h 10.7663 c 0.076,0 0.136,0.0529 0.1814,0.15865 0.045,0.12089 0.068,0.22714 0.068,0.31781 h 0.4304 v -3.7176 h -0.4304 c 0,0.0907 -0.023,0.1964 -0.068,0.31729 -0.045,0.10578 -0.1059,0.15865 -0.1814,0.15865 h -7.2306 v -13.55421 c 0,-0.0756 0.06,-0.13606 0.1814,-0.18139 0.1209,-0.0453 0.2342,-0.0682 0.34,-0.0682 v -0.43047 z m -82.6198,3.53571 2.6748,6.82283 h -5.349 z m -37.3843,2.01021 v 1.0387 h 6.5945 v -1.0387 z m 139.0303,0 v 1.0387 h 6.5944 v -1.0387 z m -63.4411,0.60978 c -0.039,0 -0.078,0.0146 -0.108,0.0444 l -2.5549,2.55489 c -0.06,0.0596 -0.06,0.15585 0,0.21549 l 2.5549,2.55488 c 0.06,0.0596 0.1559,0.0596 0.2155,0 l 2.5549,-2.55488 c 0.06,-0.0596 0.06,-0.15586 0,-0.21549 l -2.5549,-2.55489 c -0.03,-0.0298 -0.069,-0.0444 -0.1075,-0.0444 z m -75.5892,3.95893 v 1.03818 h 6.5945 v -1.03818 z m 139.0303,0 v 1.03818 h 6.5944 v -1.03818 z" /><path
         id="text2541-4"
         style="font-weight:900;font-size:8.57883px;line-height:1;font-family:Montserrat;-inkscape-font-specification:'Montserrat Heavy';text-align:center;text-anchor:middle;fill:#f5f5f0;stroke:none;stroke-width:2.02648;stroke-linecap:square;stroke-linejoin:bevel;stroke-dasharray:6.07948, 6.07948;paint-order:stroke fill markers"
         d="m 9206.9383,-603.38022 c -13.3096,0.32788 -23.8341,11.3826 -23.5076,24.69255 0.1099,4.33852 1.389,8.56694 3.7021,12.23904 l 0.1142,-0.003 -0.738,1.66347 h 0.7049 l -1.8324,3.46283 h 1.1771 l -1.5844,3.21738 h 2.1648 l -0.4217,2.95899 h -29.6189 v 1.80144 h 32.459 v -0.0109 c 2.3612,-0.008 5.8914,-1.09476 9.1468,-2.60243 4.6837,-2.16875 7.329,-0.85244 9.5802,-1.47691 2.2648,-0.62109 1.6632,-3.54051 2.4077,-4.37906 0.745,-0.83842 8.9684,-7.22624 8.5994,-6.14588 -0.366,1.08196 3.2405,4.80096 6.6249,4.71186 3.3851,-0.0862 9.4523,5.49078 13.2091,4.89014 3.757,-0.60145 -2.2822,-2.5878 -2.8712,-5.69164 -0.59,-3.10668 -2.6579,-2.82832 -4.9253,-4.09484 -2.2678,-1.26445 1.4715,-3.94552 3.9052,-5.30045 2.4334,-1.35441 4.9184,3.33982 9.0801,6.00376 4.1609,2.66525 4.7026,6.40086 7.5323,7.37113 2.8294,0.96414 13.8821,5.55207 17.9173,6.53552 0.5048,0.1444 0.9355,0.20051 1.2929,0.1881 v 0.002 h 31.6658 v -1.80144 h -28.2789 l -0.3798,-5.25705 h 3.1833 l -2.3296,-4.73046 h 1.7312 l -2.6945,-5.09219 h 1.0362 l -2.4108,-5.43533 -2.4112,5.43533 h 1.0367 l -2.695,5.09219 h 1.7312 l -2.3301,4.73046 h 3.1833 l -0.5266,3.69228 c 0.6524,0.17768 -10.6649,-6.81316 -8.0233,-5.16616 l -1.481,-3.16821 h 1.0464 l -1.6294,-3.0794 h 0.6269 l -1.4583,-3.28714 -1.4583,3.28714 h 0.6268 l -1.5958,3.01584 c -6.0849,-3.67079 -12.2304,-7.35629 -13.7133,-8.48941 -3.0303,-2.31526 -6.0557,-4.25561 -10.5808,-5.46116 -0.407,-0.10845 -0.8384,-0.13992 -1.2873,-0.11214 0,-0.23222 2e-4,-0.46445 -0.01,-0.6966 -0.3268,-13.30971 -11.3805,-23.8347 -24.6899,-23.50967 z m 0.098,2.43292 c 12.4955,-0.30112 22.9156,9.49053 23.3914,21.98057 -4.4051,1.16212 -9.9551,6.63807 -12.3042,6.30608 -2.8253,-0.39925 -3.9152,3.97802 -9.3544,5.85132 -5.4394,1.86451 -5.4417,1.69434 -7.7014,1.36529 -1.8162,-0.25656 -7.6523,4.94998 -9.8976,7.0249 l -1.4309,-2.90577 h 1.1772 l -1.8324,-3.46284 h 0.7048 l -1.6397,-3.69641 -0.5875,1.32446 c -1.7501,-3.18565 -2.7153,-6.74275 -2.8154,-10.37611 -0.3099,-12.6202 9.67,-23.10203 22.2901,-23.41149 z m -49.9375,59.88213 v 1.03818 h 6.5945 v -1.03818 z m 139.0303,0 v 1.03818 h 6.5944 v -1.03818 z m -103.7761,13.34803 c -0.5662,0 -1.0379,0.0858 -1.4154,0.25735 -0.3718,0.16585 -0.6521,0.39203 -0.8408,0.67799 -0.183,0.28024 -0.2744,0.59167 -0.2744,0.93483 0,0.32027 0.063,0.5832 0.1886,0.7891 0.1316,0.20589 0.3006,0.37182 0.5065,0.49764 0.2058,0.12582 0.4315,0.22896 0.6774,0.30903 0.2517,0.0801 0.5008,0.14848 0.7468,0.20567 0.2516,0.0515 0.4803,0.10865 0.6862,0.17156 0.2059,0.0572 0.3718,0.1348 0.4977,0.23203 0.1258,0.0915 0.1886,0.2171 0.1886,0.37724 0,0.12582 -0.04,0.23712 -0.1204,0.33435 -0.08,0.0972 -0.2057,0.17483 -0.3773,0.23202 -0.1658,0.0515 -0.3859,0.077 -0.6604,0.077 -0.3603,0 -0.7177,-0.0572 -1.0723,-0.17157 -0.3488,-0.1201 -0.6521,-0.27173 -0.9095,-0.45475 l -0.4718,1.04645 c 0.2688,0.20589 0.6231,0.37489 1.0635,0.50643 0.4404,0.12582 0.9009,0.18862 1.3813,0.18862 0.572,0 1.0437,-0.0858 1.4154,-0.25735 0.3775,-0.17158 0.6609,-0.39724 0.8496,-0.67748 0.1887,-0.28024 0.2832,-0.58912 0.2832,-0.92656 0,-0.31455 -0.066,-0.57494 -0.1974,-0.78083 -0.1258,-0.20589 -0.2918,-0.37182 -0.4977,-0.49764 -0.2058,-0.12583 -0.4346,-0.22589 -0.6862,-0.30024 -0.2459,-0.0743 -0.4946,-0.14021 -0.7462,-0.19741 -0.2459,-0.0572 -0.4721,-0.11437 -0.678,-0.17156 -0.2059,-0.0572 -0.3718,-0.13122 -0.4977,-0.22273 -0.1258,-0.0972 -0.1886,-0.22333 -0.1886,-0.37775 0,-0.13154 0.037,-0.24591 0.1116,-0.34313 0.074,-0.10295 0.1974,-0.18566 0.369,-0.24857 0.1716,-0.0629 0.3916,-0.0946 0.6604,-0.0946 0.2688,0 0.5435,0.0403 0.8238,0.12041 0.2802,0.0743 0.56,0.19126 0.8402,0.3514 l 0.4294,-1.05523 c -0.2802,-0.1773 -0.6034,-0.30851 -0.9694,-0.39429 -0.366,-0.0915 -0.7382,-0.13746 -1.1157,-0.13746 z m 9.0336,0 c -0.4805,0 -0.9205,0.0771 -1.3209,0.23151 -0.4003,0.1487 -0.7496,0.36313 -1.047,0.64337 -0.2974,0.28024 -0.5286,0.60903 -0.6945,0.9865 -0.1601,0.37747 -0.2403,0.79255 -0.2403,1.24437 0,0.45182 0.08,0.86638 0.2403,1.24385 0.1659,0.37747 0.3946,0.70626 0.6863,0.98651 0.2974,0.28024 0.6435,0.49773 1.0382,0.65215 0.4003,0.1487 0.8378,0.22273 1.3125,0.22273 0.429,0 0.8578,-0.0659 1.2868,-0.19741 0.4346,-0.13154 0.815,-0.31993 1.141,-0.56585 v -2.43655 h -1.2697 v 1.76114 c -0.093,0.0491 -0.1876,0.0928 -0.2832,0.12609 -0.2573,0.0858 -0.5233,0.12867 -0.7979,0.12867 -0.2859,0 -0.5489,-0.0454 -0.7891,-0.13694 -0.2344,-0.0915 -0.4407,-0.22323 -0.618,-0.39481 -0.1716,-0.1773 -0.3059,-0.38305 -0.4031,-0.61753 -0.092,-0.23449 -0.1369,-0.49181 -0.1369,-0.77205 0,-0.28596 0.045,-0.54634 0.1369,-0.78083 0.097,-0.23449 0.2315,-0.43769 0.4031,-0.60927 0.1773,-0.17157 0.3861,-0.30278 0.6263,-0.39429 0.2402,-0.0915 0.5062,-0.13746 0.7979,-0.13746 0.3031,0 0.5834,0.0572 0.8408,0.17157 0.2573,0.10867 0.4947,0.27714 0.7121,0.50591 l 0.8919,-0.8232 c -0.2917,-0.33744 -0.6516,-0.59475 -1.0806,-0.77205 -0.4232,-0.17729 -0.9011,-0.26613 -1.4329,-0.26613 z m -5.7392,0.10283 v 6.00532 h 1.3901 v -6.00532 z m 9.4283,0 v 6.00532 h 1.3726 v -3.64474 l 2.9941,3.64474 h 1.141 v -6.00532 h -1.3725 v 3.64319 l -2.9859,-3.64319 z m 8.8191,0 -2.6768,6.00532 h 1.4242 l 0.5349,-1.28674 h 2.7838 l 0.5333,1.28674 h 1.4583 l -2.6851,-6.00532 z m 3.7058,0 v 1.13275 h 1.9218 v 4.87257 h 1.3896 v -4.87257 h 1.9218 v -1.13275 z m 5.8254,0 v 3.36311 c 0,0.88074 0.24,1.55825 0.7204,2.03295 0.4804,0.47469 1.1467,0.7121 1.9989,0.7121 0.8521,0 1.5184,-0.23741 1.9988,-0.7121 0.4804,-0.4747 0.7209,-1.15221 0.7209,-2.03295 v -3.36311 h -1.3731 v 3.31143 c 0,0.57192 -0.1169,0.98394 -0.3514,1.23558 -0.2344,0.25165 -0.5632,0.37724 -0.9865,0.37724 -0.4232,0 -0.752,-0.12559 -0.9865,-0.37724 -0.2344,-0.25164 -0.3519,-0.66366 -0.3519,-1.23558 v -3.31143 z m 6.8115,0 v 6.00532 h 1.3896 v -1.67276 h 1.2097 c 0.022,0 0.042,-0.002 0.064,-0.003 l 1.154,1.67535 h 1.5012 l -1.3416,-1.92546 c 0,-0.002 0.01,-0.003 0.012,-0.005 0.3889,-0.17158 0.6891,-0.41767 0.9007,-0.73794 0.2116,-0.326 0.3178,-0.71197 0.3178,-1.15807 0,-0.45182 -0.1062,-0.84086 -0.3178,-1.16686 -0.2116,-0.32599 -0.5118,-0.57463 -0.9007,-0.7462 -0.3889,-0.1773 -0.852,-0.26614 -1.3896,-0.26614 z m 6.3056,0 v 6.00532 h 4.6493 v -1.11518 h -3.2685 v -1.39009 h 2.7884 v -1.08056 h -2.7884 v -1.30431 h 3.1569 v -1.11518 z m 7.506,0 v 1.13275 h 1.9218 v 4.87257 h 1.3896 v -4.87257 h 1.9218 v -1.13275 z m 5.9795,0 v 6.00532 h 1.39 v -1.67276 h 1.2098 c 0.022,0 0.042,-0.002 0.064,-0.003 l 1.1539,1.67535 h 1.5012 l -1.3415,-1.92546 c 0,-0.002 0.01,-0.003 0.012,-0.005 0.3889,-0.17158 0.6891,-0.41767 0.9007,-0.73794 0.2116,-0.326 0.3173,-0.71197 0.3173,-1.15807 0,-0.45182 -0.1057,-0.84086 -0.3173,-1.16686 -0.2116,-0.32599 -0.5118,-0.57463 -0.9007,-0.7462 -0.3889,-0.1773 -0.852,-0.26614 -1.3896,-0.26614 z m 8.1927,0 -2.6763,6.00532 h 1.4242 l 0.5349,-1.28674 h 2.7838 l 0.5333,1.28674 h 1.4583 l -2.6851,-6.00532 z m 4.6845,0 v 6.00532 h 1.3896 v -6.00532 z m 2.8138,0 v 6.00532 h 4.4008 v -1.13223 h -3.0112 v -4.87309 z m -34.0925,1.13275 h 1.1322 c 0.429,0 0.7496,0.0914 0.9612,0.2744 0.2116,0.18302 0.3173,0.44033 0.3173,0.77205 0,0.32599 -0.1057,0.58331 -0.3173,0.77204 -0.2116,0.18302 -0.5322,0.27441 -0.9612,0.27441 h -1.1322 z m 19.7915,0 h 1.1323 c 0.4289,0 0.749,0.0914 0.9606,0.2744 0.2117,0.18302 0.3179,0.44033 0.3179,0.77205 0,0.32599 -0.1062,0.58331 -0.3179,0.77204 -0.2116,0.18302 -0.5317,0.27441 -0.9606,0.27441 h -1.1323 z m -36.8468,0.23203 0.9524,2.29857 h -1.9079 z m 44.327,0 0.9524,2.29857 h -1.9079 z m -101.8,0.94051 v 1.39475 h 26.6361 v -1.39475 z m 115.9035,0 v 1.39475 h 29.7207 v -1.39475 z"
         sodipodi:nodetypes="sccccccccccccccscsccsscssccccccccccccccccccccccccccccccssccssccscccccccccccccccccccccscsscsscccsscsccccscsscsssscscssccccsscscscccsscccccscccsccssccccscccccccccccccccccccccccccccccccccccsssssccsssssccccccsccccscsscscccccccccccccccccccccccccccsccccscsscscccccccccccccccccccccccssscscccssscscccccccccccccccccccc" /></g></g></svg>
